<svg xmlns="http://www.w3.org/2000/svg" xmlns:xlink="http://www.w3.org/1999/xlink" width="375" viewBox="0 0 375 375" height="375" version="1.0"><defs><g id="a"><path d="M 2.28125 0 L 23.4375 -61.90625 L 34.171875 -61.90625 L 55.328125 0 L 46.609375 0 L 41.234375 -16.109375 L 16.015625 -16.109375 L 10.734375 0 Z M 18.515625 -23.625 L 38.640625 -23.625 L 28.578125 -53.765625 Z M 18.515625 -23.625"/></g><g id="b"><path d="M 47.28125 -23.796875 C 47.28125 -15.890625 45.660156 -9.710938 42.421875 -5.265625 C 39.191406 -0.828125 34.671875 1.390625 28.859375 1.390625 C 26.347656 1.390625 23.898438 0.882812 21.515625 -0.125 C 19.128906 -1.144531 17.054688 -2.382812 15.296875 -3.84375 L 15.296875 0 L 7.609375 0 L 7.609375 -66.609375 L 15.296875 -66.609375 L 15.296875 -42.21875 C 17.054688 -43.925781 19.171875 -45.359375 21.640625 -46.515625 C 24.117188 -47.679688 26.773438 -48.265625 29.609375 -48.265625 C 35.398438 -48.265625 39.789062 -46.144531 42.78125 -41.90625 C 45.78125 -37.675781 47.28125 -31.640625 47.28125 -23.796875 Z M 39.3125 -23.625 C 39.3125 -29.882812 38.359375 -34.414062 36.453125 -37.21875 C 34.546875 -40.019531 31.773438 -41.421875 28.140625 -41.421875 C 25.753906 -41.421875 23.441406 -40.804688 21.203125 -39.578125 C 18.960938 -38.359375 16.992188 -36.957031 15.296875 -35.375 L 15.296875 -10.5625 C 16.992188 -9.125 18.960938 -7.921875 21.203125 -6.953125 C 23.441406 -5.984375 25.632812 -5.5 27.78125 -5.5 C 31.238281 -5.5 34.023438 -6.957031 36.140625 -9.875 C 38.253906 -12.800781 39.3125 -17.382812 39.3125 -23.625 Z M 39.3125 -23.625"/></g><g id="c"><path d="M 46.515625 -23.34375 C 46.515625 -15.207031 44.765625 -9.050781 41.265625 -4.875 C 37.765625 -0.695312 32.65625 1.390625 25.9375 1.390625 C 19.226562 1.390625 14.097656 -0.671875 10.546875 -4.796875 C 7.003906 -8.929688 5.234375 -15.113281 5.234375 -23.34375 C 5.234375 -31.726562 7.015625 -37.976562 10.578125 -42.09375 C 14.140625 -46.207031 19.257812 -48.265625 25.9375 -48.265625 C 32.675781 -48.265625 37.789062 -46.171875 41.28125 -41.984375 C 44.769531 -37.796875 46.515625 -31.582031 46.515625 -23.34375 Z M 38.5625 -23.34375 C 38.5625 -29.726562 37.507812 -34.363281 35.40625 -37.25 C 33.300781 -40.144531 30.144531 -41.59375 25.9375 -41.59375 C 21.613281 -41.59375 18.410156 -40.140625 16.328125 -37.234375 C 14.242188 -34.328125 13.203125 -29.695312 13.203125 -23.34375 C 13.203125 -17.238281 14.207031 -12.707031 16.21875 -9.75 C 18.226562 -6.800781 21.46875 -5.328125 25.9375 -5.328125 C 30.207031 -5.328125 33.378906 -6.785156 35.453125 -9.703125 C 37.523438 -12.628906 38.5625 -17.175781 38.5625 -23.34375 Z M 38.5625 -23.34375"/></g><g id="d"><path d="M 34.265625 0 L 34.265625 -5.859375 C 31.878906 -3.773438 29.476562 -2.046875 27.0625 -0.671875 C 24.644531 0.703125 21.914062 1.390625 18.875 1.390625 C 14.40625 1.390625 10.953125 0.0234375 8.515625 -2.703125 C 6.085938 -5.429688 4.875 -8.929688 4.875 -13.203125 C 4.875 -16.421875 5.503906 -19.09375 6.765625 -21.21875 C 8.035156 -23.351562 9.867188 -25.039062 12.265625 -26.28125 C 14.671875 -27.519531 18.15625 -28.40625 22.71875 -28.9375 L 34.265625 -29.96875 L 34.265625 -32.25 C 34.265625 -35.851562 33.253906 -38.3125 31.234375 -39.625 C 29.222656 -40.9375 26.445312 -41.59375 22.90625 -41.59375 C 19.738281 -41.59375 17.296875 -41.039062 15.578125 -39.9375 C 13.867188 -38.84375 12.644531 -37.648438 11.90625 -36.359375 L 5.59375 -40.21875 C 7.019531 -42.8125 9.203125 -44.800781 12.140625 -46.1875 C 15.078125 -47.570312 18.722656 -48.265625 23.078125 -48.265625 C 29.816406 -48.265625 34.644531 -47.039062 37.5625 -44.59375 C 40.488281 -42.144531 41.953125 -37.910156 41.953125 -31.890625 L 41.953125 0 Z M 34.265625 -23.796875 L 26.75 -23.078125 C 21.644531 -22.628906 18.050781 -21.632812 15.96875 -20.09375 C 13.882812 -18.5625 12.84375 -16.320312 12.84375 -13.375 C 12.84375 -10.570312 13.539062 -8.554688 14.9375 -7.328125 C 16.34375 -6.109375 18.445312 -5.5 21.25 -5.5 C 22.40625 -5.5 23.550781 -5.710938 24.6875 -6.140625 C 25.820312 -6.578125 26.941406 -7.113281 28.046875 -7.75 C 29.148438 -8.394531 30.210938 -9.128906 31.234375 -9.953125 C 32.265625 -10.773438 33.273438 -11.570312 34.265625 -12.34375 Z M 34.265625 -23.796875"/></g><g id="e"><path d="M 17.84375 -4.390625 C 17.84375 -2.503906 17.398438 -1.195312 16.515625 -0.46875 C 15.640625 0.257812 14.25 0.625 12.34375 0.625 C 10.226562 0.625 8.804688 0.1875 8.078125 -0.6875 C 7.347656 -1.570312 6.984375 -2.804688 6.984375 -4.390625 C 6.984375 -6.171875 7.390625 -7.457031 8.203125 -8.25 C 9.023438 -9.039062 10.40625 -9.4375 12.34375 -9.4375 C 14.375 -9.4375 15.796875 -9.039062 16.609375 -8.25 C 17.429688 -7.457031 17.84375 -6.171875 17.84375 -4.390625 Z M 17.84375 -4.390625"/></g></defs><path fill="#FFF" d="M-37.5 -37.5H412.5V412.5H-37.5z"/><path fill="#FFF" d="M-37.5 -37.5H412.5V412.5H-37.5z"/><path d="M-37.5 -37.5H412.5V412.5H-37.5z"/><g fill="#FFF"><use x="43.287" y="223.873" xmlns:xlink="http://www.w3.org/1999/xlink" xlink:href="#a" xlink:type="simple" xlink:actuate="onLoad" xlink:show="embed"/></g><g fill="#FFF"><use x="100.898" y="223.873" xmlns:xlink="http://www.w3.org/1999/xlink" xlink:href="#b" xlink:type="simple" xlink:actuate="onLoad" xlink:show="embed"/></g><g fill="#FFF"><use x="153.41" y="223.873" xmlns:xlink="http://www.w3.org/1999/xlink" xlink:href="#c" xlink:type="simple" xlink:actuate="onLoad" xlink:show="embed"/></g><g fill="#FFF"><use x="205.162" y="223.873" xmlns:xlink="http://www.w3.org/1999/xlink" xlink:href="#b" xlink:type="simple" xlink:actuate="onLoad" xlink:show="embed"/></g><g fill="#FFF"><use x="257.674" y="223.873" xmlns:xlink="http://www.w3.org/1999/xlink" xlink:href="#d" xlink:type="simple" xlink:actuate="onLoad" xlink:show="embed"/></g><g fill="#FFF"><use x="306.876" y="223.873" xmlns:xlink="http://www.w3.org/1999/xlink" xlink:href="#e" xlink:type="simple" xlink:actuate="onLoad" xlink:show="embed"/></g></svg>