<svg xmlns="http://www.w3.org/2000/svg" width="3000" viewBox="0 0 3000 750" height="750" version="1.0"><defs><clipPath id="a"><path d="M 978 217 L 1071.75 217 L 1071.75 749 L 978 749 Z M 978 217"/></clipPath><clipPath id="b"><path d="M 978 227 L 1071.75 227 L 1071.75 234 L 978 234 Z M 978 227"/></clipPath><clipPath id="c"><path d="M 978 242 L 1071.75 242 L 1071.75 266 L 978 266 Z M 978 242"/></clipPath><clipPath id="d"><path d="M 1850 341.339844 L 2301 341.339844 L 2301 459 L 1850 459 Z M 1850 341.339844"/></clipPath><clipPath id="e"><path d="M 1815.4375 450 L 2235 450 L 2235 540 L 1815.4375 540 Z M 1815.4375 450"/></clipPath><clipPath id="f"><path d="M 2128.136719 87 L 2640 87 L 2640 598 L 2128.136719 598 Z M 2128.136719 87"/></clipPath><clipPath id="g"><path d="M 2355 28.699219 L 2404 28.699219 L 2404 47 L 2355 47 Z M 2355 28.699219"/></clipPath></defs><path fill="#FFF" d="M-300 -75H3300V825H-300z"/><path fill="#D0EEF4" d="M-300 -75H3300V825H-300z"/><path fill="#EF382B" d="M 535.949219 683.644531 L 151.667969 683.644531 C 135.523438 683.644531 122.386719 670.511719 122.386719 654.371094 C 122.386719 638.222656 135.523438 625.089844 151.667969 625.089844 L 535.949219 625.089844 C 540.347656 625.089844 543.929688 621.527344 543.929688 617.121094 C 543.929688 612.699219 540.347656 609.128906 535.949219 609.128906 L 151.667969 609.128906 C 126.714844 609.128906 106.421875 629.417969 106.421875 654.371094 C 106.421875 679.304688 126.714844 699.59375 151.667969 699.59375 L 535.949219 699.59375 C 540.347656 699.59375 543.929688 696.019531 543.929688 691.625 C 543.929688 687.207031 540.347656 683.644531 535.949219 683.644531"/><path fill="#CED0C6" d="M 151.667969 625.089844 C 150.085938 625.089844 148.535156 625.222656 147.019531 625.460938 C 146.320312 625.96875 111.519531 651.242188 146.984375 683.261719 C 148.511719 683.511719 150.074219 683.644531 151.667969 683.644531 L 531.496094 683.644531 L 531.496094 625.089844 L 151.667969 625.089844"/><path fill="#9A9A93" d="M 148.308594 625.3125 L 148.308594 625.292969 C 147.957031 625.324219 147.609375 625.394531 147.257812 625.4375 C 147.609375 625.394531 147.957031 625.347656 148.308594 625.3125"/><path fill="#9A9A93" d="M 147.144531 683.285156 C 147.527344 683.328125 147.914062 683.398438 148.308594 683.429688 L 148.308594 683.417969 C 147.925781 683.375 147.527344 683.328125 147.144531 683.285156"/><path fill="#9A9A93" d="M 147.007812 625.472656 C 133.070312 627.710938 122.386719 639.804688 122.386719 654.371094 C 122.386719 668.917969 133.058594 681.011719 146.984375 683.25 C 111.585938 651.296875 146.183594 626.070312 147.007812 625.472656"/><path fill="#9A9A93" d="M 134.3125 667.269531 L 531.496094 667.269531 L 531.496094 666.195312 L 133.816406 666.195312 C 133.972656 666.554688 134.144531 666.90625 134.3125 667.269531"/><path fill="#9A9A93" d="M 136.496094 671.132812 L 531.496094 671.132812 L 531.496094 670.082031 L 135.839844 670.082031 C 136.042969 670.421875 136.269531 670.785156 136.496094 671.132812"/><path fill="#9A9A93" d="M 132.707031 663.402344 L 531.496094 663.402344 L 531.496094 662.328125 L 132.355469 662.328125 C 132.46875 662.691406 132.582031 663.042969 132.707031 663.402344"/><path fill="#9A9A93" d="M 139.230469 675.023438 L 531.496094 675.023438 L 531.496094 673.949219 L 138.417969 673.949219 C 138.675781 674.296875 138.949219 674.660156 139.230469 675.023438"/><path fill="#9A9A93" d="M 146.453125 682.773438 L 531.496094 682.773438 L 531.496094 681.703125 L 145.3125 681.703125 C 145.6875 682.0625 146.070312 682.414062 146.453125 682.773438"/><path fill="#9A9A93" d="M 131.644531 659.527344 L 531.496094 659.527344 L 531.496094 658.464844 L 131.453125 658.464844 C 131.507812 658.8125 131.578125 659.164062 131.644531 659.527344"/><path fill="#9A9A93" d="M 142.53125 678.886719 L 531.496094 678.886719 L 531.496094 677.824219 L 141.582031 677.824219 C 141.886719 678.1875 142.203125 678.535156 142.53125 678.886719"/><path fill="#9A9A93" d="M 131.734375 647.894531 L 531.496094 647.894531 L 531.496094 646.824219 L 131.996094 646.824219 C 131.90625 647.183594 131.8125 647.535156 131.734375 647.894531"/><path fill="#9A9A93" d="M 139.761719 632.402344 L 531.496094 632.402344 L 531.496094 631.339844 L 140.6875 631.339844 C 140.382812 631.675781 140.078125 632.027344 139.761719 632.402344"/><path fill="#9A9A93" d="M 143.425781 628.523438 L 531.496094 628.523438 L 531.496094 627.472656 L 144.578125 627.472656 C 144.226562 627.777344 143.832031 628.128906 143.425781 628.523438"/><path fill="#9A9A93" d="M 136.84375 636.277344 L 531.496094 636.277344 L 531.496094 635.203125 L 137.578125 635.203125 C 137.332031 635.554688 137.082031 635.914062 136.84375 636.277344"/><path fill="#9A9A93" d="M 131.136719 655.648438 L 531.496094 655.648438 L 531.496094 654.585938 L 131.078125 654.585938 C 131.089844 654.9375 131.113281 655.289062 131.136719 655.648438"/><path fill="#9A9A93" d="M 131.167969 651.761719 L 531.496094 651.761719 L 531.496094 650.710938 L 131.269531 650.710938 C 131.226562 651.0625 131.191406 651.421875 131.167969 651.761719"/><path fill="#9A9A93" d="M 134.5625 640.144531 L 531.496094 640.144531 L 531.496094 639.082031 L 135.125 639.082031 C 134.933594 639.429688 134.742188 639.78125 134.5625 640.144531"/><path fill="#9A9A93" d="M 132.867188 644.019531 L 531.496094 644.019531 L 531.496094 642.957031 L 133.273438 642.957031 C 133.125 643.308594 133 643.65625 132.867188 644.019531"/><path fill="#9A9A93" d="M 166.894531 596.1875 L 155.148438 596.1875 L 155.148438 541.777344 L 166.894531 541.777344 L 166.894531 596.1875"/><path fill="#CED0C6" d="M 169.789062 544.820312 C 168.421875 544.820312 167.085938 544.933594 165.777344 545.148438 L 165.550781 545.316406 L 165.550781 594.808594 L 165.753906 594.988281 C 167.066406 595.203125 168.410156 595.316406 169.789062 595.316406 L 497.410156 595.316406 L 497.410156 544.820312 L 169.789062 544.820312"/><path fill="#9A9A93" d="M 165.550781 580.296875 L 165.550781 581.203125 L 497.410156 581.203125 L 497.410156 580.296875 L 165.550781 580.296875"/><path fill="#9A9A93" d="M 165.550781 583.621094 L 165.550781 584.546875 L 497.410156 584.546875 L 497.410156 583.621094 L 165.550781 583.621094"/><path fill="#9A9A93" d="M 165.550781 576.941406 L 165.550781 577.855469 L 497.410156 577.855469 L 497.410156 576.941406 L 165.550781 576.941406"/><path fill="#9A9A93" d="M 165.550781 586.976562 L 165.550781 587.890625 L 497.410156 587.890625 L 497.410156 586.976562 L 165.550781 586.976562"/><path fill="#9A9A93" d="M 165.550781 593.644531 L 165.550781 594.570312 L 497.410156 594.570312 L 497.410156 593.644531 L 165.550781 593.644531"/><path fill="#9A9A93" d="M 165.550781 573.59375 L 165.550781 574.523438 L 497.410156 574.523438 L 497.410156 573.59375 L 165.550781 573.59375"/><path fill="#9A9A93" d="M 165.550781 590.3125 L 165.550781 591.226562 L 497.410156 591.226562 L 497.410156 590.3125 L 165.550781 590.3125"/><path fill="#9A9A93" d="M 165.550781 563.582031 L 165.550781 564.496094 L 497.410156 564.496094 L 497.410156 563.582031 L 165.550781 563.582031"/><path fill="#9A9A93" d="M 165.550781 550.210938 L 165.550781 551.125 L 497.410156 551.125 L 497.410156 550.210938 L 165.550781 550.210938"/><path fill="#9A9A93" d="M 165.550781 546.855469 L 165.550781 547.78125 L 497.410156 547.78125 L 497.410156 546.855469 L 165.550781 546.855469"/><path fill="#9A9A93" d="M 165.550781 553.542969 L 165.550781 554.460938 L 497.410156 554.460938 L 497.410156 553.542969 L 165.550781 553.542969"/><path fill="#9A9A93" d="M 165.550781 570.25 L 165.550781 571.175781 L 497.410156 571.175781 L 497.410156 570.25 L 165.550781 570.25"/><path fill="#9A9A93" d="M 165.550781 566.914062 L 165.550781 567.832031 L 497.410156 567.832031 L 497.410156 566.914062 L 165.550781 566.914062"/><path fill="#9A9A93" d="M 165.550781 556.890625 L 165.550781 557.804688 L 497.410156 557.804688 L 497.410156 556.890625 L 165.550781 556.890625"/><path fill="#9A9A93" d="M 165.550781 560.222656 L 165.550781 561.152344 L 497.410156 561.152344 L 497.410156 560.222656 L 165.550781 560.222656"/><path fill="#43BE92" d="M 501.253906 595.316406 L 169.789062 595.316406 C 161.402344 595.316406 160.023438 583.992188 160.023438 570.078125 C 160.023438 556.144531 161.683594 544.820312 169.789062 544.820312 L 501.253906 544.820312 C 505.050781 544.820312 505.050781 531.054688 501.253906 531.054688 L 169.789062 531.054688 C 148.265625 531.054688 146.25 548.558594 146.25 570.078125 C 146.25 591.589844 148.265625 609.074219 169.789062 609.074219 L 501.253906 609.074219 C 505.050781 609.074219 505.050781 595.316406 501.253906 595.316406"/><path fill="#9A9A93" d="M 166.894531 545.011719 L 166.894531 544.988281 C 166.589844 545.035156 166.285156 545.078125 165.980469 545.125 C 166.285156 545.078125 166.589844 545.046875 166.894531 545.011719"/><path fill="#9A9A93" d="M 165.890625 595.011719 C 166.21875 595.058594 166.554688 595.101562 166.894531 595.148438 L 166.894531 595.125 C 166.554688 595.09375 166.21875 595.058594 165.890625 595.011719"/><path fill="#D03540" d="M 175.125 553.542969 L 193.644531 553.542969 C 193.644531 553.542969 200.347656 554.460938 197.21875 570.25 C 195.125 580.804688 199.910156 588.695312 205.59375 600.503906 L 191.542969 590.492188 L 188.261719 601.996094 C 188.261719 601.996094 175.78125 586.773438 178.484375 573.59375 C 180.949219 561.683594 178.066406 556.234375 175.125 553.542969"/><path fill="#9A9A93" d="M 114.460938 739.761719 L 102.710938 740.53125 L 102.710938 711.324219 L 114.460938 705.324219 L 114.460938 739.761719"/><path fill="#CED0C6" d="M 117.355469 708.363281 C 115.984375 708.363281 114.652344 708.476562 113.339844 708.691406 L 113.113281 708.859375 L 113.113281 738.382812 L 113.316406 738.574219 C 114.628906 738.777344 115.984375 738.890625 117.355469 738.890625 L 544.847656 738.890625 L 544.847656 708.363281 L 117.355469 708.363281"/><path fill="#9A9A93" d="M 113.113281 723.859375 L 113.113281 724.773438 L 544.847656 724.773438 L 544.847656 723.859375 L 113.113281 723.859375"/><path fill="#9A9A93" d="M 113.113281 727.191406 L 113.113281 728.121094 L 544.847656 728.121094 L 544.847656 727.191406 L 113.113281 727.191406"/><path fill="#9A9A93" d="M 113.113281 720.523438 L 113.113281 721.429688 L 544.847656 721.429688 L 544.847656 720.523438 L 113.113281 720.523438"/><path fill="#9A9A93" d="M 113.113281 730.550781 L 113.113281 731.453125 L 544.847656 731.453125 L 544.847656 730.550781 L 113.113281 730.550781"/><path fill="#9A9A93" d="M 113.113281 737.21875 L 113.113281 738.144531 L 544.847656 738.144531 L 544.847656 737.21875 L 113.113281 737.21875"/><path fill="#9A9A93" d="M 113.113281 717.179688 L 113.113281 718.09375 L 544.847656 718.09375 L 544.847656 717.179688 L 113.113281 717.179688"/><path fill="#9A9A93" d="M 113.113281 733.882812 L 113.113281 734.800781 L 544.847656 734.800781 L 544.847656 733.882812 L 113.113281 733.882812"/><path fill="#9A9A93" d="M 113.113281 713.824219 L 113.113281 714.75 L 544.847656 714.75 L 544.847656 713.824219 L 113.113281 713.824219"/><path fill="#9A9A93" d="M 113.113281 710.476562 L 113.113281 711.402344 L 544.847656 711.402344 L 544.847656 710.476562 L 113.113281 710.476562"/><path fill="#E49F30" d="M 548.691406 738.890625 L 117.355469 738.890625 C 108.964844 738.890625 107.585938 737.558594 107.585938 723.632812 C 107.585938 709.707031 109.246094 708.363281 117.355469 708.363281 L 548.691406 708.363281 C 552.488281 708.363281 552.488281 699.59375 548.691406 699.59375 L 117.355469 699.59375 C 104.261719 699.59375 98.8125 702.113281 98.8125 723.632812 C 98.8125 745.140625 105.5625 747.671875 117.355469 747.671875 L 548.691406 747.671875 C 552.488281 747.671875 552.488281 738.890625 548.691406 738.890625"/><path fill="#9A9A93" d="M 114.460938 708.554688 L 114.460938 708.53125 C 114.152344 708.578125 113.847656 708.625 113.542969 708.65625 C 113.847656 708.625 114.152344 708.589844 114.460938 708.554688"/><path fill="#9A9A93" d="M 113.453125 738.585938 C 113.792969 738.640625 114.121094 738.675781 114.460938 738.722656 L 114.460938 738.710938 C 114.121094 738.664062 113.78125 738.640625 113.453125 738.585938"/><path fill="#D03540" d="M 284.089844 710.476562 L 302.609375 710.476562 C 302.609375 710.476562 306.339844 711.167969 306.101562 721.734375 C 305.855469 732.484375 305.992188 729.703125 310.535156 739.46875 L 296.492188 729.441406 L 293.203125 740.949219 C 293.203125 740.949219 286.953125 737.070312 287.652344 723.632812 C 288.21875 712.917969 285.4375 711.664062 284.089844 710.476562"/><path fill="#40AFB8" d="M 84.476562 733.535156 C 81.367188 743.988281 70.378906 749.957031 59.921875 746.847656 L 16.527344 733.984375 C 6.070312 730.890625 0.101562 719.890625 3.199219 709.4375 L 160.304688 179.8125 C 163.402344 169.355469 174.402344 163.390625 184.859375 166.484375 L 228.253906 179.359375 C 238.710938 182.457031 244.667969 193.441406 241.570312 203.898438 L 84.476562 733.535156"/><path fill="#FFF" d="M 234.019531 229.359375 L 152.753906 205.277344 L 156.730469 191.871094 L 237.996094 215.957031 L 234.019531 229.359375"/><path fill="#FFF" d="M 228.886719 246.664062 L 147.621094 222.578125 L 151.585938 209.175781 L 232.851562 233.261719 L 228.886719 246.664062"/><path fill="#FFF" d="M 91.191406 710.882812 L 9.925781 686.789062 L 13.90625 673.382812 L 95.171875 697.480469 L 91.191406 710.882812"/><path fill="#FFF" d="M 86.058594 728.175781 L 4.792969 704.089844 L 8.761719 690.699219 L 90.027344 714.785156 L 86.058594 728.175781"/><path fill="#481316" d="M 456.921875 527.164062 L 376.492188 533.496094 L 335.453125 12.242188 L 415.871094 5.914062 L 456.921875 527.164062"/><path fill="#FFF" d="M 417.113281 21.636719 L 336.6875 27.953125 L 336.222656 21.976562 L 416.640625 15.65625 L 417.113281 21.636719"/><path fill="#FFF" d="M 419.636719 53.746094 L 339.21875 60.085938 L 337.386719 36.882812 L 417.816406 30.574219 L 419.636719 53.746094"/><path fill="#FFF" d="M 374.886719 513.171875 L 455.316406 506.832031 L 455.792969 512.8125 L 375.363281 519.140625 L 374.886719 513.171875"/><path fill="#FFF" d="M 372.367188 481.039062 L 452.785156 474.722656 L 454.617188 497.902344 L 374.1875 504.234375 L 372.367188 481.039062"/><path fill="#FFF" d="M 431.878906 422.710938 L 386.578125 419.972656 L 383.910156 386.125 L 429.222656 388.882812 L 431.878906 422.710938"/><path fill="#321732" d="M 959.882812 748.882812 L 836.0625 748.882812 L 836.0625 253.410156 L 959.882812 253.410156 L 959.882812 748.882812"/><path fill="#5D3860" d="M 956.398438 746.8125 C 956.398438 747.945312 955.472656 748.882812 954.332031 748.882812 L 841.613281 748.882812 C 840.46875 748.882812 839.542969 747.945312 839.542969 746.8125 L 839.542969 255.46875 C 839.542969 254.339844 840.46875 253.410156 841.613281 253.410156 L 954.332031 253.410156 C 955.472656 253.410156 956.398438 254.339844 956.398438 255.46875 L 956.398438 746.8125"/><path fill="#401F43" d="M 953.019531 746.8125 C 953.019531 747.945312 952.160156 748.882812 951.109375 748.882812 L 844.835938 748.882812 C 843.78125 748.882812 842.921875 747.945312 842.921875 746.8125 L 842.921875 255.46875 C 842.921875 254.339844 843.78125 253.410156 844.835938 253.410156 L 951.109375 253.410156 C 952.160156 253.410156 953.019531 254.339844 953.019531 255.46875 L 953.019531 746.8125"/><path fill="#FFF" d="M 953.019531 276.3125 L 842.921875 276.3125 L 842.921875 267.167969 L 953.019531 267.167969 L 953.019531 276.3125"/><path fill="#FFF" d="M 953.019531 731.351562 L 842.921875 731.351562 L 842.921875 722.199219 L 953.019531 722.199219 L 953.019531 731.351562"/><path fill="#FFF" d="M 930.101562 697.839844 L 865.839844 697.839844 L 865.839844 301.753906 L 930.101562 301.753906 L 930.101562 697.839844"/><path fill="#F28B30" d="M 679.171875 721.621094 L 602.824219 747.671875 L 431.269531 245.035156 L 507.617188 218.984375 L 679.171875 721.621094"/><path fill="#FFF" d="M 512.714844 233.90625 L 436.367188 259.945312 L 434.425781 254.269531 L 510.773438 228.230469 L 512.714844 233.90625"/><path fill="#FFF" d="M 523.117188 264.398438 L 446.769531 290.449219 L 439.261719 268.433594 L 515.609375 242.390625 L 523.117188 264.398438"/><path fill="#FFF" d="M 650.691406 675.746094 C 655.722656 690.484375 647.84375 706.5 633.109375 711.515625 C 618.367188 716.558594 602.359375 708.679688 597.328125 693.953125 C 592.296875 679.226562 600.167969 663.199219 614.898438 658.179688 C 629.640625 653.152344 645.660156 661.019531 650.691406 675.746094"/><path fill="#D7A626" d="M 340.664062 531.054688 L 247.597656 531.054688 L 247.597656 -0.03125 L 340.664062 -0.03125 L 340.664062 531.054688"/><path fill="#FFF" d="M 340.664062 15.734375 L 247.597656 15.734375 L 247.597656 9.734375 L 340.664062 9.734375 L 340.664062 15.734375"/><path fill="#FFF" d="M 340.664062 47.957031 L 247.597656 47.957031 L 247.597656 24.699219 L 340.664062 24.699219 L 340.664062 47.957031"/><path fill="#FFF" d="M 330.367188 414.199219 L 257.894531 414.199219 L 257.894531 148.980469 L 330.367188 148.980469 L 330.367188 414.199219"/><path fill="#E7244D" d="M 766.574219 721.382812 L 690.308594 747.671875 L 519.863281 253.355469 L 596.128906 227.066406 L 766.574219 721.382812"/><path fill="#FFF" d="M 601.261719 241.960938 L 524.996094 268.253906 L 523.039062 262.578125 L 599.308594 236.300781 L 601.261719 241.960938"/><path fill="#FFF" d="M 611.765625 272.445312 L 535.496094 298.710938 L 527.910156 276.730469 L 604.191406 250.441406 L 611.765625 272.445312"/><path fill="#FFF" d="M 683.660156 728.390625 L 759.929688 702.113281 L 761.882812 707.777344 L 685.617188 734.054688 L 683.660156 728.390625"/><path fill="#FFF" d="M 673.15625 697.921875 L 749.425781 671.640625 L 757 693.636719 L 680.730469 719.925781 L 673.15625 697.921875"/><path fill="#FFF" d="M 716.140625 626.535156 L 671.597656 635.238281 L 660.527344 603.152344 L 705.082031 594.449219 L 716.140625 626.535156"/><path fill="#FFF" d="M 703.027344 588.515625 L 658.480469 597.207031 L 647.414062 565.117188 L 691.96875 556.425781 L 703.027344 588.515625"/><path fill="#FFF" d="M 689.910156 550.46875 L 645.367188 559.171875 L 634.296875 527.074219 L 678.855469 518.382812 L 689.910156 550.46875"/><g clip-path="url(#a)"><path fill="#2A344F" d="M 1071.96875 748.882812 L 978.886719 748.882812 L 978.886719 217.789062 L 1071.96875 217.789062 L 1071.96875 748.882812"/></g><g clip-path="url(#b)"><path fill="#FFF" d="M 1071.96875 233.542969 L 978.886719 233.542969 L 978.886719 227.550781 L 1071.96875 227.550781 L 1071.96875 233.542969"/></g><g clip-path="url(#c)"><path fill="#FFF" d="M 1071.96875 265.777344 L 978.886719 265.777344 L 978.886719 242.503906 L 1071.96875 242.503906 L 1071.96875 265.777344"/></g><path fill="#FFF" d="M 1061.667969 632.015625 L 989.199219 632.015625 L 989.199219 366.796875 L 1061.667969 366.796875 L 1061.667969 632.015625"/><path fill="#FFF" d="M 1053.617188 696.257812 C 1053.617188 711.820312 1041 724.433594 1025.433594 724.433594 C 1009.863281 724.433594 997.234375 711.820312 997.234375 696.257812 C 997.234375 680.683594 1009.863281 668.082031 1025.433594 668.082031 C 1041 668.082031 1053.617188 680.683594 1053.617188 696.257812"/><path fill="#9A9A93" d="M 764.042969 309.617188 L 762.6875 288.585938 L 815.03125 288.585938 L 825.785156 309.617188 L 764.042969 309.617188"/><path fill="#CED0C6" d="M 820.335938 314.804688 C 820.335938 312.363281 820.140625 309.957031 819.757812 307.628906 L 819.464844 307.210938 L 766.542969 307.210938 L 766.203125 307.574219 C 765.816406 309.933594 765.613281 312.34375 765.613281 314.804688 L 765.613281 735.679688 L 820.335938 735.679688 L 820.335938 314.804688"/><path fill="#9A9A93" d="M 792.566406 307.210938 L 790.929688 307.210938 L 790.929688 735.679688 L 792.566406 735.679688 L 792.566406 307.210938"/><path fill="#9A9A93" d="M 786.574219 307.210938 L 784.9375 307.210938 L 784.9375 735.679688 L 786.574219 735.679688 L 786.574219 307.210938"/><path fill="#9A9A93" d="M 798.558594 307.210938 L 796.921875 307.210938 L 796.921875 735.679688 L 798.558594 735.679688 L 798.558594 307.210938"/><path fill="#9A9A93" d="M 780.582031 307.210938 L 778.945312 307.210938 L 778.945312 735.679688 L 780.582031 735.679688 L 780.582031 307.210938"/><path fill="#9A9A93" d="M 768.609375 307.210938 L 766.960938 307.210938 L 766.960938 735.679688 L 768.609375 735.679688 L 768.609375 307.210938"/><path fill="#9A9A93" d="M 804.550781 307.210938 L 802.902344 307.210938 L 802.902344 735.679688 L 804.550781 735.679688 L 804.550781 307.210938"/><path fill="#9A9A93" d="M 774.589844 307.210938 L 772.953125 307.210938 L 772.953125 735.679688 L 774.589844 735.679688 L 774.589844 307.210938"/><path fill="#9A9A93" d="M 810.542969 307.210938 L 808.894531 307.210938 L 808.894531 735.679688 L 810.542969 735.679688 L 810.542969 307.210938"/><path fill="#9A9A93" d="M 816.535156 307.210938 L 814.886719 307.210938 L 814.886719 735.679688 L 816.535156 735.679688 L 816.535156 307.210938"/><path fill="#D03540" d="M 765.613281 742.554688 L 765.613281 314.804688 C 765.613281 299.773438 768.023438 297.308594 792.976562 297.308594 C 817.9375 297.308594 820.335938 300.28125 820.335938 314.804688 L 820.335938 742.554688 C 820.335938 749.367188 836.0625 749.367188 836.0625 742.554688 L 836.0625 314.804688 C 836.0625 291.355469 831.539062 281.589844 792.976562 281.589844 C 754.410156 281.589844 749.886719 293.683594 749.886719 314.804688 L 749.886719 742.554688 C 749.886719 749.367188 765.613281 749.367188 765.613281 742.554688"/><path fill="#9A9A93" d="M 819.996094 309.617188 L 820.03125 309.617188 C 819.972656 309.074219 819.882812 308.535156 819.804688 307.992188 C 819.882812 308.523438 819.9375 309.074219 819.996094 309.617188"/><path fill="#9A9A93" d="M 766.167969 307.820312 C 766.078125 308.410156 766 309.019531 765.921875 309.617188 L 765.953125 309.617188 C 766.023438 309.019531 766.078125 308.410156 766.167969 307.820312"/><path fill="#D03540" d="M 804.550781 345.050781 L 804.550781 378.222656 C 804.550781 378.222656 792.636719 387.59375 771.269531 382.507812 L 787.910156 366.1875 L 768.609375 349.0625 C 768.609375 349.0625 792.566406 358.160156 804.550781 345.050781"/><path fill="#FAFBEC" d="M 1862.765625 689.011719 C 1862.429688 671.769531 1853.4375 657.007812 1840.59375 649.921875 C 1844.222656 646.835938 1848.886719 644.925781 1853.996094 644.824219 L 2251.496094 639.550781 C 2263.25 639.324219 2273.054688 648.734375 2273.285156 660.472656 L 2274.234375 708.875 C 2274.464844 720.613281 2265.039062 730.40625 2253.28125 730.636719 L 1855.785156 735.910156 C 1849.878906 736.027344 1844.46875 733.699219 1840.511719 729.871094 C 1853.960938 722.644531 1863.117188 706.992188 1862.765625 689.011719"/><path fill="#CA961B" d="M 1838.460938 635.0625 L 1838.648438 635.058594 Z M 1838.460938 635.0625"/><path fill="#CA961B" d="M 2268.550781 637.808594 L 2268.554688 637.8125 L 2268.558594 637.8125 Z M 2268.550781 637.808594"/><path fill="#CA961B" d="M 2270.375 730.589844 L 2270.371094 730.597656 Z M 2270.375 730.589844"/><path fill="#F79C3E" d="M 1831.097656 739.695312 C 1832.433594 741.894531 1834.558594 743.636719 1837.140625 744.441406 C 1842.972656 746.257812 2239.988281 740.347656 2259.101562 737.546875 C 2267.121094 735.085938 2273.960938 728.691406 2277.023438 720.878906 C 2279.457031 714.675781 2279.183594 654.914062 2275.285156 646.707031 C 2270.148438 635.890625 2257.925781 629.363281 2246.160156 629.59375 C 2228.089844 629.945312 1880.121094 634.253906 1844.734375 634.894531 C 1839.710938 634.984375 1834.140625 635.300781 1830.621094 638.878906 C 1827.453125 642.097656 1828.558594 648.382812 1834.402344 651.882812 C 1841.738281 656.277344 2247.199219 647.988281 2253.261719 653.210938 C 2258.769531 657.960938 2258.320312 698.378906 2257.304688 708.304688 C 2256.476562 716.410156 2249.996094 718.445312 2242.695312 718.585938 C 2171.277344 718.941406 1844.253906 725.5 1836.519531 726.980469 C 1834.074219 727.445312 1830.722656 729.609375 1830.25 730.8125 C 1829.054688 733.871094 1829.523438 737.101562 1831.097656 739.695312"/><path fill="#D4D4C2" d="M 1877.359375 714.535156 L 2237.367188 708.121094 C 2238.261719 708.097656 2238.964844 707.347656 2238.941406 706.453125 C 2238.914062 705.558594 2238.171875 704.851562 2237.277344 704.878906 L 1877.269531 711.296875 C 1876.375 711.320312 1875.667969 712.066406 1875.695312 712.960938 C 1875.71875 713.859375 1876.460938 714.5625 1877.359375 714.535156"/><path fill="#D4D4C2" d="M 1876.214844 694.46875 L 2236.21875 688.050781 C 2237.117188 688.027344 2237.820312 687.28125 2237.796875 686.386719 C 2237.773438 685.488281 2237.023438 684.785156 2236.132812 684.808594 L 1876.121094 691.226562 C 1875.226562 691.253906 1874.523438 691.996094 1874.546875 692.890625 C 1874.570312 693.789062 1875.316406 694.492188 1876.214844 694.46875"/><path fill="#D4D4C2" d="M 1902.914062 702.214844 L 2236.132812 697.941406 C 2237.027344 697.914062 2237.734375 697.171875 2237.707031 696.277344 C 2237.683594 695.382812 2236.941406 694.675781 2236.046875 694.699219 L 1902.828125 698.976562 C 1901.933594 699 1901.226562 699.742188 1901.25 700.636719 C 1901.277344 701.535156 1902.019531 702.238281 1902.914062 702.214844"/><path fill="#D4D4C2" d="M 1875.632812 678.246094 L 2235.640625 671.832031 C 2236.535156 671.808594 2237.238281 671.058594 2237.214844 670.164062 C 2237.191406 669.269531 2236.445312 668.5625 2235.550781 668.589844 L 1875.539062 675.007812 C 1874.648438 675.035156 1873.941406 675.777344 1873.964844 676.671875 C 1873.992188 677.566406 1874.738281 678.273438 1875.632812 678.246094"/><path fill="#D4D4C2" d="M 1872.796875 668.910156 L 2235.414062 662.109375 C 2236.316406 662.085938 2237.027344 661.335938 2237.003906 660.441406 C 2236.976562 659.550781 2236.230469 658.84375 2235.328125 658.871094 L 1872.707031 665.671875 C 1871.808594 665.695312 1871.09375 666.441406 1871.121094 667.335938 C 1871.144531 668.230469 1871.894531 668.933594 1872.796875 668.910156"/><path fill="#FAFBEC" d="M 2266.152344 396.140625 C 2265.917969 378.898438 2274.417969 363.84375 2287.019531 356.339844 C 2283.289062 353.371094 2278.5625 351.617188 2273.453125 351.683594 L 1875.996094 359.539062 C 1864.238281 359.695312 1854.753906 369.429688 1854.910156 381.167969 L 1855.558594 429.574219 C 1855.71875 441.3125 1865.464844 450.792969 1877.21875 450.632812 L 2274.671875 442.777344 C 2280.582031 442.699219 2285.914062 440.199219 2289.742188 436.242188 C 2276.058594 429.464844 2266.390625 414.121094 2266.152344 396.140625"/><path fill="#CA961B" d="M 1858.894531 358.359375 L 1858.890625 358.363281 Z M 1858.894531 358.359375"/><path fill="#CA961B" d="M 1860.136719 451.152344 L 1860.136719 451.15625 L 1860.140625 451.15625 Z M 1860.136719 451.152344"/><g clip-path="url(#d)"><path fill="#84BCA9" d="M 2299.472656 445.753906 C 2298.210938 447.988281 2296.144531 449.800781 2293.589844 450.691406 C 2287.820312 452.699219 1890.824219 459.898438 1871.628906 457.730469 C 1863.53125 455.535156 1856.492188 449.371094 1853.171875 441.664062 C 1850.527344 435.542969 1848.832031 375.808594 1852.460938 367.472656 C 1857.234375 356.492188 1869.234375 349.5625 1881 349.40625 C 1899.074219 349.164062 2246.996094 341.984375 2282.382812 341.457031 C 2287.40625 341.378906 2292.984375 341.511719 2296.621094 344.972656 C 2299.894531 348.082031 2298.996094 354.402344 2293.269531 358.097656 C 2286.085938 362.730469 1880.570312 367.824219 1874.683594 373.246094 C 1869.335938 378.175781 1871.117188 418.558594 1872.460938 428.441406 C 1873.558594 436.519531 1880.101562 438.339844 1887.402344 438.242188 C 1958.792969 436.234375 2285.859375 431.996094 2293.636719 433.21875 C 2296.09375 433.605469 2299.515625 435.652344 2300.027344 436.84375 C 2301.324219 439.859375 2300.964844 443.105469 2299.472656 445.753906"/></g><path fill="#D4D4C2" d="M 2252.40625 422.128906 L 1892.382812 427.601562 C 1891.488281 427.605469 1890.757812 426.882812 1890.753906 425.988281 C 1890.746094 425.09375 1891.472656 424.363281 1892.367188 424.359375 L 2252.386719 418.890625 C 2253.285156 418.882812 2254.015625 419.609375 2254.019531 420.503906 C 2254.023438 421.394531 2253.304688 422.128906 2252.40625 422.128906"/><path fill="#D4D4C2" d="M 2252.890625 402.035156 L 1892.867188 407.507812 C 1891.972656 407.507812 1891.242188 406.789062 1891.238281 405.894531 C 1891.230469 404.996094 1891.953125 404.269531 1892.847656 404.265625 L 2252.871094 398.792969 C 2253.769531 398.785156 2254.496094 399.511719 2254.5 400.40625 C 2254.507812 401.300781 2253.785156 402.03125 2252.890625 402.035156"/><path fill="#D4D4C2" d="M 2226.460938 410.65625 L 1893.277344 417.386719 C 1892.382812 417.390625 1891.65625 416.671875 1891.648438 415.777344 C 1891.644531 414.878906 1892.367188 414.152344 1893.261719 414.144531 L 2226.4375 407.417969 C 2227.335938 407.410156 2228.0625 408.136719 2228.070312 409.03125 C 2228.074219 409.925781 2227.351562 410.652344 2226.460938 410.65625"/><path fill="#D4D4C2" d="M 2252.933594 385.804688 L 1892.910156 391.273438 C 1892.015625 391.28125 1891.285156 390.558594 1891.28125 389.664062 C 1891.277344 388.769531 1892 388.039062 1892.894531 388.035156 L 2252.914062 382.566406 C 2253.8125 382.558594 2254.539062 383.28125 2254.546875 384.175781 C 2254.550781 385.070312 2253.832031 385.800781 2252.933594 385.804688"/><path fill="#D4D4C2" d="M 2255.460938 376.378906 L 1892.816406 381.550781 C 1891.914062 381.554688 1891.175781 380.835938 1891.171875 379.941406 C 1891.164062 379.042969 1891.894531 378.316406 1892.792969 378.3125 L 2255.441406 373.136719 C 2256.34375 373.132812 2257.082031 373.855469 2257.082031 374.75 C 2257.089844 375.648438 2256.363281 376.375 2255.460938 376.378906"/><g clip-path="url(#e)"><path fill="#FAC608" d="M 2234.164062 509.984375 C 2234.296875 524.046875 2223.011719 535.535156 2208.972656 535.695312 L 2182.054688 535.96875 L 2154 536.238281 L 2122.300781 536.558594 L 2094.246094 536.832031 L 1841.648438 539.355469 C 1827.585938 539.496094 1816.097656 528.210938 1815.960938 514.167969 L 1815.621094 480.222656 C 1815.460938 466.164062 1826.746094 454.671875 1840.808594 454.539062 L 2094.246094 451.988281 L 2122.300781 451.714844 L 2154 451.394531 L 2182.054688 451.101562 L 2208.109375 450.847656 C 2222.171875 450.714844 2233.664062 462 2233.824219 476.039062 L 2234.164062 509.984375"/></g><path fill="#F68D11" d="M 2122.300781 451.714844 L 2122.300781 536.558594 L 2094.246094 536.832031 L 2094.246094 451.988281 L 2122.300781 451.714844"/><path fill="#F68D11" d="M 2182.054688 451.101562 L 2182.054688 535.96875 L 2154 536.238281 L 2154 451.394531 L 2182.054688 451.101562"/><path fill="#ED586E" d="M 1857.714844 601.699219 C 1857.578125 618.074219 1869.21875 631.453125 1883.703125 631.636719 L 1911.476562 631.957031 L 1940.417969 632.273438 L 1973.121094 632.644531 L 2002.0625 632.960938 L 2262.660156 635.902344 C 2277.164062 636.0625 2289.019531 622.921875 2289.160156 606.574219 L 2289.511719 567.042969 C 2289.675781 550.667969 2278.03125 537.289062 2263.527344 537.128906 L 2002.0625 534.160156 L 1973.121094 533.84375 L 1940.417969 533.476562 L 1911.476562 533.128906 L 1884.59375 532.839844 C 1870.085938 532.679688 1858.234375 545.820312 1858.070312 562.167969 L 1857.714844 601.699219"/><path fill="#F5C538" d="M 1906.328125 613.59375 L 2046.765625 613.59375 C 2053.347656 613.59375 2058.6875 608.253906 2058.6875 601.671875 L 2058.6875 559.941406 C 2058.6875 553.359375 2053.347656 548.019531 2046.765625 548.019531 L 1906.328125 548.019531 C 1899.742188 548.019531 1894.40625 553.359375 1894.40625 559.941406 L 1894.40625 601.671875 C 1894.40625 608.253906 1899.742188 613.59375 1906.328125 613.59375"/><path fill="#ED586E" d="M 2182.054688 697.023438 L 2182.625 769.59375 L 2196.269531 746.949219 L 2212.667969 767.75 L 2211.492188 696.578125 C 2211.492188 696.578125 2192.046875 696.484375 2182.054688 697.023438"/><path fill="#DB7C27" d="M 2226.609375 652.105469 L 2226.609375 710.273438 C 2226.609375 732.371094 2297.035156 750.265625 2383.925781 750.265625 C 2470.808594 750.265625 2541.242188 732.371094 2541.242188 710.273438 L 2541.242188 652.105469 L 2226.609375 652.105469"/><path fill="#F9A72B" d="M 2541.242188 652.105469 C 2541.242188 674.183594 2470.808594 692.097656 2383.925781 692.097656 C 2297.035156 692.097656 2226.609375 674.183594 2226.609375 652.105469 C 2226.609375 630.027344 2297.035156 612.121094 2383.925781 612.121094 C 2470.808594 612.121094 2541.242188 630.027344 2541.242188 652.105469"/><path fill="#F6882D" d="M 2366.261719 593.210938 L 2366.261719 649.933594 C 2366.261719 649.933594 2367.472656 655.136719 2379.351562 655.136719 C 2391.246094 655.136719 2392.4375 649.933594 2392.4375 649.933594 L 2392.4375 593.210938 L 2366.261719 593.210938"/><g clip-path="url(#f)"><path fill="#42C1D0" d="M 2639.066406 342.589844 C 2639.066406 483.445312 2524.828125 597.65625 2383.898438 597.65625 C 2242.988281 597.65625 2128.75 483.445312 2128.75 342.589844 C 2128.75 201.714844 2242.988281 87.5 2383.898438 87.5 C 2524.828125 87.5 2639.066406 201.714844 2639.066406 342.589844"/></g><path fill="#1A332E" d="M 2399.628906 257.730469 C 2391.816406 262.003906 2389.394531 277.882812 2381.738281 278.578125 C 2380.175781 268.996094 2383.519531 261.914062 2386.988281 254.300781 C 2388.890625 250.191406 2394.113281 252.382812 2391.058594 244.292969 C 2389.023438 238.867188 2384.335938 240.738281 2382.367188 237.742188 C 2376.175781 228.21875 2378.664062 224.734375 2366.308594 219.296875 C 2357.210938 215.304688 2353.449219 214.636719 2345.707031 216.488281 C 2335.675781 218.851562 2333.378906 223.910156 2325.566406 229.683594 C 2316.507812 236.40625 2313.230469 233.5 2317.242188 244.253906 C 2318.183594 246.773438 2320.644531 252.21875 2323.269531 254.300781 C 2329.054688 258.914062 2328.097656 253.109375 2331.828125 254.292969 C 2337.980469 256.210938 2340.667969 264.144531 2348.0625 265.160156 C 2347.847656 276.398438 2337.644531 266.789062 2333.523438 265.113281 C 2331.816406 268.96875 2330.886719 273.269531 2330.820312 277.417969 C 2325.636719 276.089844 2324.394531 273.125 2318.53125 273.183594 C 2314.5 286.765625 2340.851562 287.597656 2327.300781 302.808594 C 2322.261719 308.449219 2317.234375 306.421875 2316.003906 314.425781 C 2315.265625 319.183594 2319.839844 326.265625 2325.074219 326.023438 C 2324.703125 332.066406 2329.375 337.078125 2332.4375 341.765625 C 2341.199219 334.304688 2352.625 363.726562 2362.964844 361.625 C 2366.339844 370.433594 2363.449219 385.652344 2376.804688 378.859375 C 2375.765625 386.6875 2394.636719 393.578125 2382.804688 400.261719 C 2391.75 400.386719 2391.902344 408.75 2389.402344 415.25 C 2376.621094 422.011719 2394.519531 430.964844 2397.929688 434.695312 C 2407.515625 445.226562 2399.035156 450.039062 2399.753906 461.199219 C 2386.613281 463.796875 2406.285156 484.878906 2408.183594 494.519531 C 2420.335938 494.539062 2416.421875 503.789062 2419.679688 511.753906 C 2424.378906 511.191406 2428.34375 513.136719 2429.882812 517.683594 C 2432.441406 525.335938 2427.90625 524.648438 2424.078125 526.886719 C 2418.117188 530.363281 2405.703125 529.761719 2398.824219 531.507812 C 2382.367188 535.671875 2364.902344 545.1875 2347.265625 546.242188 C 2347.605469 544.761719 2347.023438 542.484375 2347.277344 540.855469 C 2347.933594 540.75 2348.574219 540.59375 2349.214844 540.449219 C 2350 524.320312 2339.222656 536.515625 2330.9375 534.976562 C 2326.652344 534.191406 2314.578125 526.128906 2311.671875 523.523438 C 2312.183594 526.59375 2310.894531 530.488281 2311.28125 533.601562 C 2305.429688 533.726562 2298.828125 531.980469 2296.289062 538.222656 C 2289.855469 533.523438 2284.058594 536.148438 2278.167969 533.804688 C 2272.265625 531.429688 2268.835938 524.617188 2263.398438 522.429688 C 2264.640625 536.320312 2243.300781 515.046875 2235.625 514.242188 C 2231.457031 513.816406 2228.132812 515.878906 2224.070312 515.453125 C 2220.234375 515.046875 2220.128906 510.765625 2214.941406 511.945312 C 2210.835938 512.886719 2207.722656 518.070312 2203.625 519.484375 C 2201.414062 511.132812 2195.328125 493.199219 2209.03125 492.25 C 2207.78125 482.910156 2217.113281 485.390625 2222.8125 486.488281 C 2222.832031 485.148438 2223.179688 483.589844 2223.160156 482.261719 C 2228.054688 483.191406 2231.835938 481.429688 2232.339844 476.496094 C 2238.125 475.519531 2243.550781 475.027344 2249.238281 473.863281 C 2249.074219 472.226562 2249.734375 470.113281 2249.589844 468.464844 C 2251.855469 469.261719 2256.167969 468.371094 2258.425781 469.261719 C 2258.15625 465.707031 2259.058594 461.683594 2258.777344 458.121094 C 2259.863281 457.859375 2260.792969 458.089844 2261.859375 457.789062 C 2270.648438 447.792969 2261.132812 446.492188 2257.738281 438.132812 C 2255.625 432.929688 2254.773438 419.210938 2255.355469 413.351562 C 2258.058594 413.574219 2257.882812 412.089844 2260.675781 413.03125 C 2260.402344 406.9375 2260.441406 398.226562 2261.972656 392.414062 C 2263.640625 386.078125 2269.980469 382.125 2264.492188 374.085938 C 2267.730469 368.804688 2271.722656 365.132812 2277.945312 368.214844 C 2277.683594 357.304688 2286.132812 360.144531 2293.054688 359.125 C 2298.441406 358.351562 2297.144531 354.554688 2303.199219 356.015625 C 2305.207031 356.480469 2308.8125 362.265625 2310.0625 363.613281 C 2310.75 357.074219 2315.972656 356.664062 2318.125 352.035156 C 2320.238281 347.5 2320.488281 340.980469 2321.914062 336.195312 L 2319.5 333.78125 C 2317.03125 335.207031 2315.238281 334.121094 2312.785156 334.859375 C 2313.78125 327.8125 2309.207031 324.742188 2307.957031 318.882812 C 2307.097656 314.851562 2307.046875 304.417969 2307.039062 299.601562 C 2308.851562 300.039062 2310.875 299.488281 2312.6875 300.144531 C 2312.328125 293.566406 2289.679688 252.664062 2309.015625 256.722656 C 2305.378906 249.621094 2295.417969 246.355469 2293.015625 237.445312 C 2290.144531 226.785156 2294.691406 213.746094 2292.066406 203.109375 C 2292.296875 203.167969 2294.886719 203.1875 2295.175781 203.136719 C 2299.382812 202.546875 2298.636719 214.832031 2307.976562 204.882812 C 2312.339844 200.25 2312.117188 191.464844 2313.734375 185.660156 C 2316.699219 174.964844 2325.566406 166.011719 2327.320312 155.015625 C 2320.0625 166.816406 2314.839844 173.261719 2303.644531 181.011719 C 2304.421875 163.949219 2319.65625 156.21875 2329.539062 146.328125 C 2341.433594 134.429688 2349.117188 128.976562 2364.339844 124.78125 C 2368.972656 123.519531 2377.851562 117.84375 2383.851562 117.890625 C 2394.597656 117.980469 2392.777344 124.636719 2403.648438 119.382812 C 2411.316406 115.691406 2415.675781 111.644531 2424.078125 109.878906 C 2432.675781 108.078125 2438.238281 109.328125 2442.316406 100.851562 C 2435.929688 101.984375 2430.210938 95.027344 2426.375 91.027344 C 2437.976562 91.695312 2448.800781 95.753906 2459.632812 98.933594 C 2468.433594 101.507812 2480.257812 105.054688 2494.144531 112.484375 C 2490.113281 111.953125 2485.171875 120.46875 2482.574219 121.371094 C 2486.003906 126.050781 2492.507812 127.445312 2493.214844 133.859375 C 2498.28125 131.175781 2511.929688 126.796875 2510.097656 137.277344 C 2509.164062 137.617188 2507.984375 137.054688 2507.207031 137.394531 C 2508.644531 138.585938 2508.527344 139.1875 2509.300781 140.707031 C 2516.25 141.269531 2517.578125 150.269531 2520.804688 155.636719 C 2530.109375 155.871094 2549.21875 159.386719 2548.007812 171.738281 C 2544.878906 171.804688 2542.550781 173.578125 2539.167969 173.230469 C 2538.367188 179.285156 2545.03125 179.828125 2548.492188 184.488281 C 2551.417969 188.441406 2552.6875 198.410156 2551.914062 202.933594 C 2549.25 218.359375 2536.261719 214.347656 2529.816406 205.222656 C 2524.660156 197.933594 2518.257812 188.160156 2510.550781 181.949219 C 2506.851562 178.957031 2501.695312 176.273438 2497.875 174.179688 C 2492.042969 170.984375 2490.703125 167.128906 2481.710938 168.636719 C 2481.265625 172.328125 2484.328125 175.042969 2484.144531 177.667969 C 2483.824219 182.074219 2483.28125 182.65625 2482.660156 186.910156 C 2481.828125 192.65625 2479.589844 198.050781 2479.40625 203.902344 C 2480.886719 204 2482.167969 204.03125 2483.660156 203.902344 C 2482.613281 194.011719 2514.320312 188.449219 2511.832031 197.015625 C 2514.601562 197.433594 2515.476562 199.136719 2518.109375 199.679688 C 2517.886719 207.46875 2524.828125 209.347656 2527.53125 215.566406 C 2530.117188 221.546875 2528.191406 230.449219 2528.898438 237.132812 C 2529.574219 243.480469 2533.625 251.152344 2532.113281 258.089844 C 2530.5625 265.277344 2526.570312 265.492188 2527.328125 275.128906 C 2523.113281 275.925781 2519.449219 275.140625 2516.203125 272.804688 C 2513.652344 267.292969 2514.941406 262.167969 2520.398438 260.171875 C 2520.765625 258.371094 2520.621094 256.605469 2520.425781 254.796875 C 2511.125 253.082031 2506.636719 240.261719 2497.738281 242.160156 C 2499.667969 243.925781 2500.96875 247.277344 2503.476562 248.875 C 2501.65625 249.882812 2499.496094 253.351562 2497.789062 254.339844 C 2502.808594 256.363281 2506.035156 262.226562 2500.144531 264.785156 C 2494.484375 260.375 2481.847656 259.136719 2480.1875 251.375 C 2475.324219 250.289062 2470.992188 250.398438 2468.695312 254.417969 C 2456.515625 257.1875 2452.132812 248.410156 2440.359375 254.476562 C 2440.378906 250.117188 2442.046875 246.578125 2444.613281 243.429688 L 2442.492188 241.84375 C 2444.507812 244.449219 2425.300781 255.222656 2423.195312 255.898438 C 2415.773438 258.339844 2406.449219 254 2399.628906 257.730469"/><path fill="#1A332E" d="M 2560.820312 519.996094 C 2550.964844 519.765625 2543.898438 527.621094 2532.269531 526.710938 L 2532.269531 523.621094 C 2534.089844 523.503906 2535.933594 522.527344 2537.6875 522.0625 C 2533.753906 514.195312 2542.347656 516.480469 2543.289062 511.65625 C 2545.023438 502.664062 2539.992188 507.375 2537.8125 500.484375 C 2535.449219 493.035156 2539.914062 491.59375 2542.6875 486.972656 C 2544.964844 483.171875 2548.222656 480.285156 2550.75 475.441406 C 2555.382812 466.488281 2560.082031 458.488281 2566.285156 449.652344 C 2569.105469 445.632812 2590.542969 419.511719 2586.269531 439.390625 L 2589.351562 439.363281 C 2589.332031 436.875 2591.09375 434.605469 2590.871094 431.710938 C 2601.40625 431.679688 2596.976562 417.253906 2601.386719 410.8125 C 2605.496094 404.824219 2612.878906 405.648438 2620.828125 397.210938 C 2628.105469 397.210938 2625.984375 421.808594 2624.121094 428.773438 C 2620.796875 441.214844 2608.003906 465.007812 2601.601562 475.675781 C 2590.589844 494.0625 2570.851562 516.171875 2560.402344 526.789062 L 2560.820312 519.996094"/><path fill="#EEF0D4" d="M 2502.21875 132.851562 C 2501.53125 126.136719 2497.777344 121.59375 2497.535156 114.152344 C 2510.136719 119.605469 2532.628906 134.847656 2545.894531 145.492188 C 2563.097656 159.328125 2575.425781 172.253906 2590.863281 193.34375 C 2581.269531 192.742188 2570.945312 180.4375 2562.148438 180.117188 C 2567.148438 188.925781 2575.105469 196.597656 2578.921875 205.511719 C 2582.128906 213 2582.382812 232.714844 2589.351562 234.140625 C 2589.417969 235.265625 2589.15625 237.355469 2589.378906 238.363281 C 2583.960938 238.460938 2579.910156 235.785156 2574.804688 235.292969 C 2573.738281 241.40625 2570.644531 246 2564.445312 243.324219 C 2565.027344 245.910156 2563.5625 249.542969 2564.09375 252.148438 C 2553.542969 252.710938 2557.078125 243.671875 2557.089844 238.238281 C 2557.097656 233.773438 2557.699219 225.566406 2558.210938 219.839844 C 2558.882812 212.3125 2560.199219 210.589844 2557.632812 202.933594 C 2555.539062 196.714844 2555.0625 190.417969 2553.125 184.238281 C 2552.609375 182.648438 2549.09375 179.867188 2548.191406 177.660156 C 2546.796875 174.257812 2548.203125 170.585938 2546.195312 167 C 2543.105469 161.488281 2536.59375 158.542969 2530.972656 156.945312 C 2528.035156 156.113281 2523.390625 157.050781 2520.609375 155.839844 C 2515.832031 153.710938 2518.539062 152.167969 2515.195312 149.757812 C 2510.28125 146.171875 2502.816406 145.542969 2506.355469 137.394531 C 2502.449219 135.222656 2500.152344 130.398438 2498.777344 125.953125"/><path fill="#1A332E" d="M 2612.019531 228.199219 C 2621.71875 244.535156 2632.445312 279.605469 2635.945312 302.625 C 2640.566406 333.007812 2640.742188 369.753906 2632.234375 401.433594 C 2629.664062 392.007812 2626.574219 373.492188 2624.976562 363.855469 C 2623.726562 367.0625 2615.953125 388.820312 2612.839844 390.488281 C 2603.375 395.554688 2611.4375 366.402344 2611.589844 360.453125 C 2612.910156 361.035156 2615.640625 360.765625 2616.929688 361.25 C 2620.34375 352.789062 2621.601562 333.441406 2619.257812 324.878906 L 2616.175781 324.90625 C 2614.75 326.992188 2613.296875 328.046875 2610.671875 327.5625 C 2607.171875 314.300781 2613.296875 310.8125 2617.492188 300.230469 C 2621.339844 290.542969 2618.558594 277.320312 2615.941406 267.292969 C 2612.714844 254.910156 2597.015625 236.824219 2598.800781 232.472656 C 2600.59375 228.113281 2612.019531 228.199219 2612.019531 228.199219"/><path fill="#28737F" d="M 2400.082031 94.640625 C 2400.082031 97.644531 2390.796875 100.066406 2379.351562 100.066406 C 2367.90625 100.066406 2358.625 97.644531 2358.625 94.640625 C 2358.625 91.648438 2367.90625 89.214844 2379.351562 89.214844 C 2390.796875 89.214844 2400.082031 91.648438 2400.082031 94.640625"/><path fill="#F6882D" d="M 2383.925781 620.203125 L 2383.925781 605.660156 C 2529.042969 605.660156 2647.101562 487.648438 2647.101562 342.570312 C 2647.101562 197.507812 2529.042969 79.488281 2383.925781 79.488281 L 2383.925781 64.945312 C 2537.058594 64.945312 2661.636719 189.488281 2661.636719 342.570312 C 2661.636719 495.660156 2537.058594 620.203125 2383.925781 620.203125"/><path fill="#F9A72B" d="M 2366.261719 52.226562 L 2366.261719 92.460938 C 2366.261719 92.460938 2367.472656 97.652344 2379.351562 97.652344 C 2391.246094 97.652344 2392.4375 92.460938 2392.4375 92.460938 L 2392.4375 52.226562 L 2366.261719 52.226562"/><path fill="#DB7C27" d="M 2355.398438 37.578125 L 2355.398438 50.480469 C 2355.398438 55.382812 2366.113281 59.355469 2379.351562 59.355469 C 2392.582031 59.355469 2403.308594 55.382812 2403.308594 50.480469 L 2403.308594 37.578125 L 2355.398438 37.578125"/><g clip-path="url(#g)"><path fill="#F9A72B" d="M 2403.308594 37.578125 C 2403.308594 42.480469 2392.582031 46.453125 2379.351562 46.453125 C 2366.113281 46.453125 2355.398438 42.480469 2355.398438 37.578125 C 2355.398438 32.683594 2366.113281 28.714844 2379.351562 28.714844 C 2392.582031 28.714844 2403.308594 32.683594 2403.308594 37.578125"/></g><path fill="#731A1E" d="M 2971.472656 644.945312 C 2971.472656 644.945312 2818.449219 685.695312 2802.632812 689.53125 L 2802.632812 778.679688 L 2971.472656 734.09375 C 2971.472656 734.09375 2990.445312 733.804688 2990.445312 689.53125 C 2990.445312 645.246094 2971.472656 644.945312 2971.472656 644.945312"/><path fill="#D0232B" d="M 2652.796875 644.945312 L 2483.980469 689.53125 L 2805.859375 690.371094 L 2971.472656 644.945312 L 2652.796875 644.945312"/><path fill="#B42026" d="M 2802.632812 689.53125 L 2483.980469 689.53125 L 2483.980469 698.007812 L 2502.140625 698.007812 L 2504.445312 770.203125 L 2483.980469 770.203125 L 2483.980469 778.679688 L 2802.632812 778.679688 C 2802.632812 778.679688 2821.628906 778.378906 2821.628906 734.09375 C 2821.628906 689.832031 2802.632812 689.53125 2802.632812 689.53125"/><path fill="#FFF" d="M 2794.648438 770.203125 L 2489.714844 770.203125 C 2489.714844 770.203125 2501.703125 760 2501.703125 734.09375 C 2501.703125 708.1875 2489.714844 698.007812 2489.714844 698.007812 L 2794.648438 698.007812 C 2794.648438 698.007812 2812.285156 698.238281 2812.285156 734.09375 C 2812.285156 769.960938 2794.648438 770.203125 2794.648438 770.203125"/><path fill="#D3D2D2" d="M 2502.140625 711.8125 C 2502.140625 711.8125 2506.761719 711.65625 2514.84375 711.375 C 2522.9375 711.191406 2534.488281 710.746094 2548.355469 710.542969 C 2562.226562 710.351562 2578.390625 709.972656 2595.726562 709.828125 C 2604.390625 709.769531 2613.34375 709.699219 2622.445312 709.632812 C 2631.546875 709.605469 2640.789062 709.585938 2650.027344 709.554688 C 2659.273438 709.585938 2668.515625 709.605469 2677.617188 709.632812 C 2686.71875 709.699219 2695.660156 709.757812 2704.324219 709.816406 C 2721.664062 709.953125 2737.835938 710.339844 2751.707031 710.542969 C 2765.574219 710.738281 2777.117188 711.191406 2785.207031 711.375 C 2793.300781 711.65625 2797.921875 711.8125 2797.921875 711.8125 C 2797.921875 711.8125 2793.300781 711.96875 2785.207031 712.25 C 2777.117188 712.433594 2765.574219 712.886719 2751.707031 713.082031 C 2737.835938 713.285156 2721.664062 713.671875 2704.324219 713.808594 C 2695.660156 713.867188 2686.71875 713.933594 2677.617188 713.992188 C 2668.515625 714.023438 2659.273438 714.039062 2650.027344 714.070312 C 2640.789062 714.039062 2631.546875 714.023438 2622.445312 713.992188 C 2613.34375 713.925781 2604.390625 713.855469 2595.726562 713.796875 C 2578.390625 713.652344 2562.226562 713.277344 2548.355469 713.082031 C 2534.488281 712.878906 2522.9375 712.433594 2514.84375 712.25 C 2506.761719 711.96875 2502.140625 711.8125 2502.140625 711.8125"/><path fill="#D3D2D2" d="M 2505.523438 747.699219 C 2505.523438 747.699219 2509.875 747.53125 2517.5 747.261719 C 2525.128906 747.078125 2536.011719 746.632812 2549.074219 746.429688 C 2562.148438 746.234375 2577.382812 745.855469 2593.710938 745.710938 C 2601.882812 745.644531 2610.320312 745.585938 2618.898438 745.519531 C 2627.476562 745.488281 2636.179688 745.460938 2644.890625 745.441406 C 2653.601562 745.460938 2662.316406 745.488281 2670.890625 745.507812 C 2679.46875 745.574219 2687.898438 745.644531 2696.070312 745.703125 C 2712.398438 745.835938 2727.644531 746.226562 2740.707031 746.417969 C 2753.78125 746.621094 2764.664062 747.066406 2772.289062 747.25 C 2779.90625 747.53125 2784.269531 747.699219 2784.269531 747.699219 C 2784.269531 747.699219 2779.90625 747.851562 2772.289062 748.132812 C 2764.664062 748.316406 2753.78125 748.761719 2740.707031 748.964844 C 2727.644531 749.171875 2712.398438 749.546875 2696.070312 749.683594 C 2687.898438 749.75 2679.46875 749.808594 2670.890625 749.878906 C 2662.316406 749.90625 2653.601562 749.925781 2644.890625 749.953125 C 2636.179688 749.925781 2627.476562 749.90625 2618.898438 749.878906 C 2610.320312 749.808594 2601.882812 749.742188 2593.710938 749.683594 C 2577.382812 749.539062 2562.148438 749.160156 2549.074219 748.964844 C 2536.011719 748.761719 2525.128906 748.316406 2517.5 748.132812 C 2509.875 747.851562 2505.523438 747.699219 2505.523438 747.699219"/><path fill="#D3D2D2" d="M 2509.117188 724.71875 C 2509.117188 724.71875 2511.257812 724.523438 2515.019531 724.28125 C 2518.761719 724.085938 2524.121094 723.679688 2530.554688 723.429688 C 2536.988281 723.136719 2544.488281 722.894531 2552.535156 722.730469 C 2556.554688 722.671875 2560.703125 722.546875 2564.929688 722.539062 C 2569.152344 722.519531 2573.4375 722.488281 2577.722656 722.460938 C 2582.015625 722.488281 2586.296875 722.507812 2590.523438 722.539062 C 2594.738281 722.539062 2598.894531 722.671875 2602.910156 722.730469 C 2610.953125 722.886719 2618.460938 723.128906 2624.886719 723.417969 C 2631.324219 723.671875 2636.683594 724.085938 2640.433594 724.28125 C 2644.183594 724.523438 2646.324219 724.71875 2646.324219 724.71875 C 2646.324219 724.71875 2644.183594 724.921875 2640.433594 725.164062 C 2636.683594 725.355469 2631.324219 725.761719 2624.886719 726.015625 C 2618.460938 726.316406 2610.953125 726.546875 2602.910156 726.714844 C 2598.894531 726.769531 2594.738281 726.898438 2590.523438 726.90625 C 2586.296875 726.925781 2582.015625 726.957031 2577.722656 726.976562 C 2573.4375 726.957031 2569.152344 726.925781 2564.929688 726.898438 C 2560.703125 726.886719 2556.554688 726.761719 2552.535156 726.703125 C 2544.488281 726.546875 2536.988281 726.304688 2530.554688 726.015625 C 2524.121094 725.761719 2518.761719 725.347656 2515.019531 725.164062 C 2511.257812 724.921875 2509.117188 724.71875 2509.117188 724.71875"/><path fill="#D3D2D2" d="M 2565.152344 734.09375 C 2565.152344 734.09375 2567.292969 733.902344 2571.054688 733.660156 C 2574.792969 733.464844 2580.152344 733.058594 2586.589844 732.808594 C 2593.023438 732.515625 2600.523438 732.273438 2608.566406 732.109375 C 2612.589844 732.050781 2616.746094 731.925781 2620.960938 731.914062 C 2625.1875 731.894531 2629.472656 731.867188 2633.765625 731.839844 C 2638.046875 731.867188 2642.339844 731.886719 2646.558594 731.914062 C 2650.773438 731.914062 2654.929688 732.050781 2658.953125 732.109375 C 2666.984375 732.265625 2674.496094 732.507812 2680.929688 732.796875 C 2687.355469 733.050781 2692.726562 733.464844 2696.464844 733.660156 C 2700.226562 733.902344 2702.367188 734.09375 2702.367188 734.09375 C 2702.367188 734.09375 2700.226562 734.300781 2696.464844 734.542969 C 2692.726562 734.734375 2687.355469 735.140625 2680.929688 735.394531 C 2674.496094 735.683594 2666.984375 735.925781 2658.953125 736.089844 C 2654.929688 736.148438 2650.773438 736.273438 2646.558594 736.273438 C 2642.339844 736.304688 2638.046875 736.332031 2633.765625 736.351562 C 2629.472656 736.332031 2625.1875 736.304688 2620.960938 736.273438 C 2616.746094 736.265625 2612.589844 736.140625 2608.566406 736.082031 C 2600.523438 735.925781 2593.023438 735.683594 2586.589844 735.394531 C 2580.152344 735.132812 2574.792969 734.726562 2571.054688 734.53125 C 2567.292969 734.300781 2565.152344 734.09375 2565.152344 734.09375"/><path fill="#D3D2D2" d="M 2685.339844 724.71875 C 2685.339844 724.71875 2690.640625 723.960938 2698.589844 723.429688 C 2702.550781 723.136719 2707.195312 722.894531 2712.15625 722.730469 C 2714.648438 722.671875 2717.214844 722.546875 2719.8125 722.539062 C 2722.417969 722.519531 2725.074219 722.488281 2727.71875 722.460938 C 2730.367188 722.488281 2733.019531 722.507812 2735.628906 722.539062 C 2738.234375 722.539062 2740.804688 722.671875 2743.285156 722.730469 C 2748.246094 722.886719 2752.886719 723.128906 2756.863281 723.417969 C 2764.808594 723.960938 2770.109375 724.71875 2770.109375 724.71875 C 2770.109375 724.71875 2764.808594 725.484375 2756.863281 726.015625 C 2752.886719 726.316406 2748.246094 726.546875 2743.285156 726.714844 C 2740.804688 726.769531 2738.234375 726.898438 2735.628906 726.90625 C 2733.019531 726.925781 2730.367188 726.957031 2727.71875 726.976562 C 2725.074219 726.957031 2722.417969 726.925781 2719.8125 726.898438 C 2717.214844 726.886719 2714.648438 726.761719 2712.15625 726.703125 C 2707.195312 726.546875 2702.550781 726.304688 2698.589844 726.015625 C 2690.640625 725.472656 2685.339844 724.71875 2685.339844 724.71875"/><path fill="#42C1D0" d="M 2746.191406 762.78125 L 2721.945312 747.699219 L 2697.695312 762.78125 C 2697.695312 762.78125 2697.695312 720.378906 2697.695312 716.09375 C 2697.695312 711.8125 2702.367188 710.019531 2702.367188 710.019531 L 2750.136719 710.019531 C 2750.136719 710.019531 2746.191406 711.792969 2746.191406 715.738281 C 2746.191406 719.6875 2746.191406 762.78125 2746.191406 762.78125"/><path fill="#F9A72B" d="M 2832.453125 580.898438 L 2508.449219 580.898438 L 2675.359375 566.441406 L 2999.351562 566.441406 L 2832.453125 580.898438"/><path fill="#F68712" d="M 2832.453125 678.574219 L 2508.449219 678.574219 C 2508.449219 678.574219 2491.21875 668.507812 2491.21875 629.734375 C 2491.21875 590.945312 2508.449219 580.898438 2508.449219 580.898438 L 2832.453125 580.898438 C 2832.453125 580.898438 2815.222656 594.539062 2815.222656 629.734375 C 2815.222656 664.921875 2832.453125 678.574219 2832.453125 678.574219"/><path fill="#E45A17" d="M 2984.234375 657.683594 C 2983.199219 652.222656 2982.453125 580.789062 2983.488281 575.316406 L 2999.363281 573.941406 L 2999.363281 566.441406 L 2832.453125 580.898438 C 2832.453125 580.898438 2815.222656 594.539062 2815.222656 629.734375 C 2815.222656 664.921875 2832.453125 678.574219 2832.453125 678.574219 L 2999.363281 664.117188 L 2999.363281 656.378906 L 2984.234375 657.683594"/><path fill="#FFF" d="M 2845.339844 669.71875 L 2999.351562 656.378906 C 2999.351562 656.378906 2984.816406 647.890625 2984.816406 615.164062 C 2984.816406 582.429688 2999.351562 573.941406 2999.351562 573.941406 L 2845.339844 587.273438 C 2845.339844 587.273438 2830.785156 598.792969 2830.785156 628.496094 C 2830.785156 658.207031 2845.339844 669.71875 2845.339844 669.71875"/><path fill="#BDBCBC" d="M 2851.84375 595.207031 C 2851.84375 595.207031 2859.964844 593.851562 2872.1875 592.40625 C 2878.292969 591.660156 2885.425781 590.886719 2893.070312 590.160156 C 2896.898438 589.820312 2900.84375 589.394531 2904.863281 589.09375 C 2908.886719 588.765625 2912.976562 588.433594 2917.054688 588.105469 C 2921.144531 587.832031 2925.234375 587.554688 2929.257812 587.28125 C 2933.277344 586.980469 2937.242188 586.828125 2941.089844 586.59375 C 2948.753906 586.1875 2955.925781 585.894531 2962.082031 585.730469 C 2974.378906 585.363281 2982.597656 585.507812 2982.597656 585.507812 C 2982.597656 585.507812 2974.484375 586.875 2962.265625 588.316406 C 2956.160156 589.0625 2949.027344 589.839844 2941.378906 590.566406 C 2937.550781 590.90625 2933.597656 591.332031 2929.578125 591.632812 C 2925.554688 591.960938 2921.476562 592.289062 2917.394531 592.609375 C 2913.304688 592.890625 2909.214844 593.164062 2905.195312 593.441406 C 2901.171875 593.722656 2897.199219 593.898438 2893.371094 594.121094 C 2885.695312 594.527344 2878.523438 594.820312 2872.378906 594.984375 C 2860.082031 595.351562 2851.84375 595.207031 2851.84375 595.207031"/><path fill="#BDBCBC" d="M 2849.703125 657.21875 C 2849.703125 657.21875 2857.8125 655.855469 2870.035156 654.410156 C 2876.140625 653.675781 2883.273438 652.898438 2890.929688 652.171875 C 2894.746094 651.824219 2898.699219 651.40625 2902.722656 651.097656 C 2906.746094 650.777344 2910.835938 650.449219 2914.914062 650.117188 C 2919.003906 649.835938 2923.09375 649.566406 2927.105469 649.285156 C 2931.128906 648.996094 2935.101562 648.832031 2938.9375 648.609375 C 2946.605469 648.199219 2953.777344 647.910156 2959.929688 647.746094 C 2972.226562 647.367188 2980.457031 647.523438 2980.457031 647.523438 C 2980.457031 647.523438 2972.34375 648.886719 2960.125 650.332031 C 2954.019531 651.078125 2946.886719 651.851562 2939.230469 652.578125 C 2935.410156 652.917969 2931.457031 653.34375 2927.433594 653.644531 C 2923.414062 653.964844 2919.324219 654.292969 2915.242188 654.625 C 2911.152344 654.90625 2907.074219 655.175781 2903.050781 655.445312 C 2899.019531 655.738281 2895.058594 655.902344 2891.21875 656.136719 C 2883.542969 656.542969 2876.382812 656.832031 2870.226562 656.996094 C 2857.929688 657.367188 2849.703125 657.21875 2849.703125 657.21875"/><path fill="#BDBCBC" d="M 2836.785156 618.339844 C 2836.785156 618.339844 2839.023438 617.992188 2842.957031 617.488281 C 2846.890625 617.035156 2852.503906 616.25 2859.257812 615.542969 C 2866.003906 614.796875 2873.890625 614.019531 2882.332031 613.292969 C 2886.558594 612.957031 2890.929688 612.527344 2895.367188 612.21875 C 2899.804688 611.898438 2904.320312 611.570312 2908.828125 611.242188 C 2913.34375 610.960938 2917.859375 610.6875 2922.300781 610.40625 C 2926.746094 610.117188 2931.117188 609.953125 2935.351562 609.730469 C 2943.832031 609.320312 2951.75 609.03125 2958.535156 608.867188 C 2965.316406 608.664062 2970.988281 608.691406 2974.949219 608.625 C 2978.914062 608.59375 2981.183594 608.644531 2981.183594 608.644531 C 2981.183594 608.644531 2978.945312 609.003906 2975.007812 609.496094 C 2971.074219 609.960938 2965.453125 610.746094 2958.707031 611.453125 C 2951.964844 612.199219 2944.074219 612.972656 2935.625 613.699219 C 2931.398438 614.039062 2927.039062 614.464844 2922.597656 614.765625 C 2918.152344 615.097656 2913.644531 615.414062 2909.136719 615.746094 C 2904.621094 616.027344 2900.105469 616.296875 2895.65625 616.578125 C 2891.21875 616.859375 2886.839844 617.035156 2882.605469 617.257812 C 2874.132812 617.664062 2866.214844 617.953125 2859.433594 618.117188 C 2852.640625 618.3125 2846.96875 618.292969 2843.015625 618.359375 C 2839.050781 618.390625 2836.785156 618.339844 2836.785156 618.339844"/><path fill="#BDBCBC" d="M 2841.921875 607.046875 C 2841.921875 607.054688 2845.488281 605.988281 2850.886719 605 C 2853.578125 604.488281 2856.738281 603.984375 2860.128906 603.539062 C 2861.828125 603.335938 2863.570312 603.0625 2865.355469 602.910156 C 2867.136719 602.734375 2868.957031 602.550781 2870.761719 602.375 C 2872.582031 602.25 2874.394531 602.125 2876.1875 601.996094 C 2877.972656 601.851562 2879.734375 601.832031 2881.449219 601.753906 C 2884.863281 601.621094 2888.058594 601.601562 2890.800781 601.667969 C 2896.289062 601.746094 2899.980469 602.203125 2899.980469 602.203125 C 2899.980469 602.203125 2896.421875 603.257812 2891.015625 604.253906 C 2888.320312 604.769531 2885.171875 605.28125 2881.78125 605.71875 C 2880.085938 605.921875 2878.339844 606.191406 2876.546875 606.347656 C 2874.765625 606.523438 2872.953125 606.695312 2871.140625 606.871094 C 2869.328125 606.996094 2867.503906 607.121094 2865.722656 607.25 C 2863.929688 607.394531 2862.164062 607.414062 2860.460938 607.492188 C 2857.046875 607.617188 2853.851562 607.644531 2851.097656 607.578125 C 2845.613281 607.5 2841.921875 607.046875 2841.921875 607.046875"/><path fill="#BDBCBC" d="M 2913.429688 602.203125 C 2913.429688 602.203125 2917.707031 601.144531 2924.160156 600.15625 C 2927.378906 599.632812 2931.136719 599.128906 2935.1875 598.683594 C 2937.203125 598.492188 2939.289062 598.210938 2941.417969 598.054688 C 2943.542969 597.878906 2945.703125 597.695312 2947.863281 597.523438 C 2950.023438 597.394531 2952.1875 597.269531 2954.316406 597.144531 C 2956.441406 597 2958.554688 596.988281 2960.578125 596.902344 C 2964.640625 596.777344 2968.4375 596.746094 2971.703125 596.816406 C 2978.226562 596.902344 2982.597656 597.355469 2982.597656 597.355469 C 2982.597656 597.355469 2978.332031 598.414062 2971.886719 599.410156 C 2968.660156 599.925781 2964.902344 600.429688 2960.859375 600.875 C 2958.835938 601.078125 2956.75 601.347656 2954.628906 601.503906 C 2952.496094 601.679688 2950.335938 601.851562 2948.175781 602.027344 C 2946.011719 602.152344 2943.851562 602.277344 2941.71875 602.40625 C 2939.585938 602.539062 2937.496094 602.558594 2935.460938 602.648438 C 2931.398438 602.773438 2927.589844 602.792969 2924.332031 602.734375 C 2917.8125 602.648438 2913.429688 602.203125 2913.429688 602.203125"/><path fill="#BDBCBC" d="M 2910.484375 632.148438 C 2910.484375 632.15625 2914.75 631.089844 2921.203125 630.101562 C 2924.421875 629.589844 2928.191406 629.085938 2932.230469 628.640625 C 2934.257812 628.4375 2936.339844 628.164062 2938.464844 628 C 2940.597656 627.828125 2942.757812 627.652344 2944.917969 627.476562 C 2947.089844 627.351562 2949.25 627.226562 2951.371094 627.101562 C 2953.503906 626.945312 2955.605469 626.933594 2957.640625 626.847656 C 2961.703125 626.722656 2965.511719 626.703125 2968.769531 626.761719 C 2975.289062 626.847656 2979.671875 627.304688 2979.671875 627.304688 C 2979.671875 627.304688 2975.398438 628.367188 2968.953125 629.355469 C 2965.726562 629.871094 2961.964844 630.382812 2957.914062 630.820312 C 2955.898438 631.023438 2953.8125 631.304688 2951.683594 631.449219 C 2949.558594 631.625 2947.398438 631.796875 2945.238281 631.984375 C 2943.066406 632.109375 2940.90625 632.234375 2938.773438 632.351562 C 2936.652344 632.496094 2934.539062 632.515625 2932.511719 632.601562 C 2928.441406 632.71875 2924.644531 632.746094 2921.378906 632.679688 C 2914.855469 632.601562 2910.484375 632.148438 2910.484375 632.148438"/><path fill="#BDBCBC" d="M 2844.257812 644.984375 C 2844.257812 644.984375 2850.476562 643.617188 2859.878906 642.164062 C 2864.578125 641.410156 2870.074219 640.632812 2875.964844 639.898438 C 2878.902344 639.558594 2881.945312 639.132812 2885.046875 638.824219 C 2888.148438 638.492188 2891.296875 638.164062 2894.4375 637.824219 C 2897.597656 637.542969 2900.746094 637.261719 2903.847656 636.992188 C 2906.957031 636.691406 2910.019531 636.527344 2912.984375 636.292969 C 2918.898438 635.878906 2924.441406 635.585938 2929.199219 635.414062 C 2938.695312 635.023438 2945.074219 635.171875 2945.074219 635.171875 C 2945.074219 635.171875 2938.851562 636.535156 2929.441406 638 C 2924.75 638.746094 2919.253906 639.53125 2913.363281 640.257812 C 2910.417969 640.59375 2907.382812 641.03125 2904.28125 641.332031 C 2901.183594 641.660156 2898.03125 641.992188 2894.882812 642.320312 C 2891.722656 642.601562 2888.574219 642.882812 2885.472656 643.164062 C 2882.371094 643.453125 2879.308594 643.628906 2876.34375 643.851562 C 2870.421875 644.265625 2864.878906 644.566406 2860.128906 644.730469 C 2850.625 645.121094 2844.257812 644.984375 2844.257812 644.984375"/><path fill="#BDBCBC" d="M 2868.84375 624.929688 C 2868.84375 624.929688 2873.105469 623.875 2879.5625 622.886719 C 2882.789062 622.363281 2886.546875 621.859375 2890.589844 621.414062 C 2892.613281 621.210938 2894.699219 620.9375 2896.820312 620.78125 C 2898.953125 620.609375 2901.113281 620.425781 2903.273438 620.25 C 2905.4375 620.125 2907.597656 620 2909.730469 619.871094 C 2911.863281 619.726562 2913.953125 619.71875 2915.988281 619.628906 C 2920.050781 619.503906 2923.859375 619.476562 2927.125 619.542969 C 2933.648438 619.621094 2938.019531 620.085938 2938.019531 620.085938 C 2938.019531 620.085938 2933.753906 621.140625 2927.300781 622.128906 C 2924.074219 622.652344 2920.3125 623.15625 2916.269531 623.601562 C 2914.246094 623.796875 2912.160156 624.078125 2910.03125 624.230469 C 2907.90625 624.40625 2905.746094 624.582031 2903.585938 624.753906 C 2901.425781 624.882812 2899.261719 625.007812 2897.132812 625.132812 C 2895.007812 625.269531 2892.894531 625.289062 2890.871094 625.375 C 2886.808594 625.5 2883.011719 625.519531 2879.734375 625.460938 C 2873.214844 625.375 2868.84375 624.929688 2868.84375 624.929688"/><path fill="#1A4174" d="M 2865.867188 483.261719 L 2541.863281 483.261719 L 2708.765625 468.816406 L 3032.757812 468.816406 L 2865.867188 483.261719"/><path fill="#15355F" d="M 2865.867188 580.9375 L 2541.863281 580.9375 C 2541.863281 580.9375 2524.625 570.878906 2524.625 532.089844 C 2524.625 493.316406 2541.863281 483.261719 2541.863281 483.261719 L 2865.867188 483.261719 C 2865.867188 483.261719 2848.617188 496.910156 2848.617188 532.089844 C 2848.617188 567.285156 2865.867188 580.9375 2865.867188 580.9375"/><path fill="#0E2543" d="M 3017.628906 560.058594 C 3016.601562 554.585938 3015.855469 483.152344 3016.894531 477.691406 L 3032.777344 476.304688 L 3032.777344 468.816406 L 2865.867188 483.261719 C 2865.867188 483.261719 2848.617188 496.910156 2848.617188 532.089844 C 2848.617188 567.285156 2865.867188 580.9375 2865.867188 580.9375 L 3032.777344 566.480469 L 3032.777344 558.75 L 3017.628906 560.058594"/><path fill="#FFF" d="M 2878.726562 572.082031 L 3032.757812 558.75 C 3032.757812 558.75 3018.210938 550.261719 3018.210938 517.527344 C 3018.210938 484.792969 3032.757812 476.304688 3032.757812 476.304688 L 2878.726562 489.644531 C 2878.726562 489.644531 2864.199219 501.164062 2864.199219 530.867188 C 2864.199219 560.570312 2878.726562 572.082031 2878.726562 572.082031"/><path fill="#BDBCBC" d="M 2885.257812 497.578125 C 2885.257812 497.578125 2893.371094 496.222656 2905.589844 494.78125 C 2911.695312 494.035156 2918.828125 493.257812 2926.476562 492.53125 C 2930.304688 492.191406 2934.257812 491.765625 2938.28125 491.457031 C 2942.300781 491.136719 2946.382812 490.808594 2950.472656 490.476562 C 2954.5625 490.207031 2958.640625 489.925781 2962.671875 489.65625 C 2966.695312 489.355469 2970.65625 489.1875 2974.496094 488.964844 C 2982.171875 488.558594 2989.332031 488.269531 2995.484375 488.105469 C 3007.792969 487.726562 3016.011719 487.882812 3016.011719 487.882812 C 3016.011719 487.882812 3007.902344 489.246094 2995.679688 490.691406 C 2989.574219 491.4375 2982.441406 492.210938 2974.796875 492.9375 C 2970.96875 493.277344 2967.015625 493.703125 2962.992188 494.003906 C 2958.96875 494.324219 2954.890625 494.652344 2950.808594 494.984375 C 2946.710938 495.265625 2942.628906 495.535156 2938.609375 495.804688 C 2934.578125 496.097656 2930.605469 496.269531 2926.777344 496.496094 C 2919.101562 496.902344 2911.9375 497.191406 2905.777344 497.355469 C 2893.476562 497.726562 2885.257812 497.578125 2885.257812 497.578125"/><path fill="#BDBCBC" d="M 2883.109375 559.59375 C 2883.109375 559.59375 2891.21875 558.226562 2903.441406 556.785156 C 2909.546875 556.039062 2916.679688 555.273438 2924.332031 554.535156 C 2928.152344 554.195312 2932.105469 553.769531 2936.128906 553.46875 C 2940.148438 553.140625 2944.230469 552.8125 2948.308594 552.480469 C 2952.398438 552.210938 2956.488281 551.929688 2960.511719 551.660156 C 2964.53125 551.359375 2968.507812 551.195312 2972.335938 550.96875 C 2980.007812 550.5625 2987.171875 550.273438 2993.324219 550.109375 C 3005.625 549.730469 3013.851562 549.886719 3013.851562 549.886719 C 3013.851562 549.886719 3005.730469 551.25 2993.519531 552.695312 C 2987.414062 553.441406 2980.28125 554.214844 2972.632812 554.941406 C 2968.804688 555.28125 2964.863281 555.707031 2960.839844 556.007812 C 2956.820312 556.335938 2952.730469 556.65625 2948.648438 556.988281 C 2944.558594 557.269531 2940.46875 557.546875 2936.449219 557.820312 C 2932.425781 558.101562 2928.453125 558.277344 2924.625 558.5 C 2916.949219 558.90625 2909.789062 559.195312 2903.632812 559.359375 C 2891.335938 559.738281 2883.109375 559.582031 2883.109375 559.59375"/><path fill="#BDBCBC" d="M 2870.191406 520.714844 C 2870.191406 520.714844 2872.429688 520.367188 2876.363281 519.863281 C 2880.296875 519.398438 2885.910156 518.621094 2892.664062 517.90625 C 2899.410156 517.167969 2907.296875 516.394531 2915.738281 515.667969 C 2919.964844 515.316406 2924.332031 514.902344 2928.773438 514.589844 C 2933.210938 514.273438 2937.71875 513.941406 2942.234375 513.613281 C 2946.75 513.332031 2951.265625 513.050781 2955.703125 512.78125 C 2960.144531 512.488281 2964.523438 512.324219 2968.757812 512.101562 C 2977.238281 511.683594 2985.15625 511.402344 2991.9375 511.238281 C 2998.722656 511.035156 3004.390625 511.066406 3008.355469 510.996094 C 3012.320312 510.96875 3014.585938 511.015625 3014.585938 511.015625 C 3014.585938 511.015625 3012.347656 511.367188 3008.414062 511.871094 C 3004.480469 512.335938 2998.867188 513.117188 2992.113281 513.828125 C 2985.367188 514.574219 2977.480469 515.347656 2969.03125 516.074219 C 2964.804688 516.414062 2960.441406 516.839844 2956.003906 517.140625 C 2951.554688 517.460938 2947.050781 517.789062 2942.542969 518.117188 C 2938.027344 518.398438 2933.511719 518.671875 2929.0625 518.941406 C 2924.625 519.230469 2920.246094 519.398438 2916.007812 519.628906 C 2907.53125 520.035156 2899.621094 520.316406 2892.835938 520.480469 C 2886.042969 520.683594 2880.375 520.65625 2876.421875 520.734375 C 2872.457031 520.761719 2870.191406 520.714844 2870.191406 520.714844"/><path fill="#BDBCBC" d="M 2875.324219 509.417969 C 2875.324219 509.417969 2878.890625 508.363281 2884.289062 507.375 C 2886.984375 506.859375 2890.144531 506.347656 2893.535156 505.910156 C 2895.230469 505.707031 2896.984375 505.4375 2898.757812 505.273438 C 2900.550781 505.097656 2902.363281 504.921875 2904.175781 504.75 C 2905.988281 504.621094 2907.8125 504.496094 2909.59375 504.371094 C 2911.386719 504.226562 2913.152344 504.207031 2914.867188 504.117188 C 2918.277344 503.992188 2921.476562 503.972656 2924.21875 504.03125 C 2929.710938 504.117188 2933.394531 504.574219 2933.394531 504.574219 C 2933.394531 504.574219 2929.839844 505.628906 2924.441406 506.617188 C 2921.738281 507.140625 2918.578125 507.644531 2915.1875 508.089844 C 2913.5 508.285156 2911.746094 508.566406 2909.960938 508.71875 C 2908.179688 508.894531 2906.367188 509.070312 2904.542969 509.242188 C 2902.734375 509.371094 2900.910156 509.496094 2899.128906 509.621094 C 2897.335938 509.757812 2895.570312 509.777344 2893.863281 509.863281 C 2890.453125 509.988281 2887.253906 510.007812 2884.503906 509.949219 C 2879.019531 509.875 2875.324219 509.417969 2875.324219 509.417969"/><path fill="#BDBCBC" d="M 2946.828125 504.574219 C 2946.828125 504.574219 2951.101562 503.519531 2957.554688 502.519531 C 2960.773438 502.007812 2964.542969 501.503906 2968.582031 501.058594 C 2970.609375 500.855469 2972.691406 500.582031 2974.824219 500.425781 C 2976.945312 500.253906 2979.109375 500.070312 2981.269531 499.894531 C 2983.429688 499.769531 2985.589844 499.644531 2987.722656 499.515625 C 2989.847656 499.371094 2991.957031 499.363281 2993.984375 499.273438 C 2998.054688 499.148438 3001.851562 499.121094 3005.109375 499.1875 C 3011.640625 499.265625 3016.011719 499.71875 3016.011719 499.71875 C 3016.011719 499.71875 3011.746094 500.785156 3005.304688 501.773438 C 3002.078125 502.296875 2998.304688 502.800781 2994.265625 503.246094 C 2992.238281 503.441406 2990.15625 503.722656 2988.035156 503.875 C 2985.902344 504.050781 2983.742188 504.226562 2981.578125 504.398438 C 2979.417969 504.527344 2977.257812 504.652344 2975.125 504.777344 C 2972.992188 504.914062 2970.890625 504.933594 2968.855469 505.019531 C 2964.792969 505.144531 2960.996094 505.164062 2957.730469 505.105469 C 2951.207031 505.019531 2946.828125 504.574219 2946.828125 504.574219"/><path fill="#BDBCBC" d="M 2943.890625 534.519531 C 2943.890625 534.519531 2948.15625 533.464844 2954.609375 532.476562 C 2957.835938 531.960938 2961.597656 531.449219 2965.636719 531.011719 C 2967.664062 530.808594 2969.746094 530.539062 2971.867188 530.375 C 2974 530.199219 2976.164062 530.023438 2978.324219 529.851562 C 2980.484375 529.714844 2982.644531 529.589844 2984.777344 529.472656 C 2986.910156 529.316406 2989.003906 529.308594 2991.039062 529.222656 C 2995.097656 529.09375 2998.90625 529.074219 3002.171875 529.132812 C 3008.695312 529.222656 3013.066406 529.675781 3013.066406 529.675781 C 3013.066406 529.675781 3008.800781 530.730469 3002.347656 531.730469 C 2999.121094 532.242188 2995.359375 532.757812 2991.320312 533.191406 C 2989.292969 533.394531 2987.210938 533.675781 2985.078125 533.824219 C 2982.957031 533.996094 2980.792969 534.171875 2978.632812 534.355469 C 2976.472656 534.480469 2974.3125 534.605469 2972.179688 534.722656 C 2970.058594 534.867188 2967.945312 534.886719 2965.917969 534.964844 C 2961.859375 535.089844 2958.058594 535.121094 2954.785156 535.054688 C 2948.261719 534.976562 2943.890625 534.519531 2943.890625 534.519531"/><path fill="#BDBCBC" d="M 2877.652344 547.347656 C 2877.652344 547.347656 2883.882812 545.980469 2893.285156 544.527344 C 2897.984375 543.773438 2903.480469 542.996094 2909.371094 542.261719 C 2912.308594 541.914062 2915.351562 541.496094 2918.453125 541.1875 C 2921.550781 540.855469 2924.703125 540.527344 2927.851562 540.1875 C 2931 539.90625 2934.160156 539.625 2937.261719 539.355469 C 2940.363281 539.054688 2943.425781 538.890625 2946.390625 538.65625 C 2952.300781 538.242188 2957.847656 537.941406 2962.605469 537.773438 C 2972.101562 537.386719 2978.476562 537.53125 2978.476562 537.53125 C 2978.476562 537.53125 2972.246094 538.898438 2962.847656 540.351562 C 2958.15625 541.109375 2952.660156 541.882812 2946.769531 542.621094 C 2943.824219 542.957031 2940.789062 543.394531 2937.6875 543.695312 C 2934.585938 544.023438 2931.4375 544.355469 2928.289062 544.683594 C 2925.128906 544.964844 2921.980469 545.246094 2918.878906 545.527344 C 2915.777344 545.816406 2912.703125 545.992188 2909.75 546.214844 C 2903.828125 546.628906 2898.292969 546.929688 2893.535156 547.09375 C 2884.027344 547.484375 2877.652344 547.347656 2877.652344 547.347656"/><path fill="#BDBCBC" d="M 2902.246094 527.292969 C 2902.246094 527.292969 2906.511719 526.238281 2912.964844 525.238281 C 2916.195312 524.726562 2919.953125 524.222656 2923.996094 523.777344 C 2926.019531 523.574219 2928.105469 523.300781 2930.234375 523.144531 C 2932.359375 522.972656 2934.519531 522.789062 2936.679688 522.613281 C 2938.839844 522.488281 2941.003906 522.363281 2943.132812 522.234375 C 2945.257812 522.089844 2947.359375 522.070312 2949.394531 521.992188 C 2953.457031 521.867188 2957.253906 521.839844 2960.53125 521.90625 C 2967.050781 521.984375 2971.421875 522.449219 2971.421875 522.4375 C 2971.421875 522.4375 2967.160156 523.503906 2960.703125 524.492188 C 2957.476562 525.015625 2953.71875 525.519531 2949.675781 525.964844 C 2947.652344 526.160156 2945.566406 526.441406 2943.433594 526.59375 C 2941.3125 526.769531 2939.152344 526.945312 2936.992188 527.117188 C 2934.828125 527.246094 2932.667969 527.371094 2930.535156 527.496094 C 2928.414062 527.632812 2926.3125 527.652344 2924.277344 527.738281 C 2920.214844 527.863281 2916.417969 527.882812 2913.140625 527.824219 C 2906.617188 527.738281 2902.246094 527.292969 2902.246094 527.292969"/><path fill="#6C4232" d="M 2875.898438 350.824219 L 2599.1875 350.824219 L 2741.722656 338.480469 L 3018.433594 338.480469 L 2875.898438 350.824219"/><path fill="#45291D" d="M 2875.898438 475.964844 L 2599.1875 475.964844 C 2599.1875 475.964844 2582.140625 444.324219 2582.140625 411.199219 C 2582.140625 378.078125 2599.1875 350.824219 2599.1875 350.824219 L 2875.898438 350.824219 C 2875.898438 350.824219 2858.839844 381.148438 2858.839844 411.199219 C 2858.839844 441.253906 2875.898438 475.964844 2875.898438 475.964844"/><path fill="#F9A72B" d="M 2649.902344 350.824219 L 2637.671875 350.824219 C 2637.671875 350.824219 2620.632812 378.078125 2620.632812 411.199219 C 2620.632812 444.324219 2637.671875 475.964844 2637.671875 475.964844 L 2649.902344 475.964844 C 2649.902344 475.964844 2632.863281 444.324219 2632.863281 411.199219 C 2632.863281 378.078125 2649.902344 350.824219 2649.902344 350.824219"/><path fill="#F9A72B" d="M 2669.535156 350.824219 L 2657.304688 350.824219 C 2657.304688 350.824219 2640.265625 378.078125 2640.265625 411.199219 C 2640.265625 444.324219 2657.304688 475.964844 2657.304688 475.964844 L 2669.535156 475.964844 C 2669.535156 475.964844 2652.488281 444.324219 2652.488281 411.199219 C 2652.488281 378.078125 2669.535156 350.824219 2669.535156 350.824219"/><path fill="#F9A72B" d="M 2830.6875 350.824219 L 2818.457031 350.824219 C 2818.457031 350.824219 2801.410156 378.078125 2801.410156 411.199219 C 2801.410156 444.324219 2818.457031 475.964844 2818.457031 475.964844 L 2830.6875 475.964844 C 2830.6875 475.964844 2813.640625 444.324219 2813.640625 411.199219 C 2813.640625 378.078125 2830.6875 350.824219 2830.6875 350.824219"/><path fill="#F9A72B" d="M 2850.324219 350.824219 L 2838.09375 350.824219 C 2838.09375 350.824219 2821.046875 378.078125 2821.046875 411.199219 C 2821.046875 444.324219 2838.09375 475.964844 2838.09375 475.964844 L 2850.324219 475.964844 C 2850.324219 475.964844 2833.285156 444.324219 2833.285156 411.199219 C 2833.285156 378.078125 2850.324219 350.824219 2850.324219 350.824219"/><path fill="#26140D" d="M 3005.507812 458.140625 C 3006.234375 461.957031 2996.203125 392.027344 3004.878906 346.058594 L 3018.433594 344.875 L 3018.433594 338.480469 L 2875.898438 350.824219 C 2875.898438 350.824219 2858.839844 381.148438 2858.839844 411.199219 C 2858.839844 441.253906 2875.898438 475.964844 2875.898438 475.964844 L 3018.433594 463.621094 L 3018.433594 457.023438 L 3005.507812 458.140625"/><path fill="#EEF0D4" d="M 2886.898438 468.410156 L 3018.433594 457.015625 C 3018.433594 457.015625 3003.675781 426.710938 3003.675781 398.761719 C 3003.675781 370.800781 3018.433594 344.875 3018.433594 344.875 L 2886.898438 356.277344 C 2886.898438 356.277344 2872.148438 384.78125 2872.148438 410.144531 C 2872.148438 435.515625 2886.898438 468.410156 2886.898438 468.410156"/><path fill="#9F9375" d="M 2891.839844 368.71875 C 2891.839844 368.71875 2898.757812 367.449219 2909.1875 366.132812 C 2914.410156 365.460938 2920.496094 364.765625 2927.027344 364.117188 C 2930.292969 363.816406 2933.667969 363.4375 2937.097656 363.175781 C 2940.527344 362.894531 2944.015625 362.613281 2947.503906 362.324219 C 2951.003906 362.089844 2954.492188 361.859375 2957.933594 361.625 C 2961.363281 361.375 2964.753906 361.257812 2968.03125 361.074219 C 2974.582031 360.746094 2980.707031 360.53125 2985.96875 360.433594 C 2996.476562 360.191406 3003.511719 360.433594 3003.511719 360.433594 C 3003.511719 360.433594 2996.589844 361.714844 2986.164062 363.019531 C 2980.941406 363.707031 2974.855469 364.398438 2968.320312 365.046875 C 2965.054688 365.347656 2961.683594 365.722656 2958.253906 365.984375 C 2954.8125 366.265625 2951.332031 366.546875 2947.84375 366.828125 C 2944.347656 367.0625 2940.855469 367.292969 2937.417969 367.527344 C 2933.988281 367.769531 2930.59375 367.894531 2927.320312 368.078125 C 2920.769531 368.398438 2914.644531 368.609375 2909.390625 368.707031 C 2898.875 368.960938 2891.839844 368.71875 2891.839844 368.71875"/><path fill="#9F9375" d="M 2890 421.671875 C 2890 421.671875 2896.925781 420.402344 2907.355469 419.085938 C 2912.570312 418.40625 2918.65625 417.71875 2925.1875 417.070312 C 2928.453125 416.769531 2931.824219 416.394531 2935.257812 416.132812 C 2938.6875 415.851562 2942.175781 415.558594 2945.664062 415.277344 C 2949.164062 415.046875 2952.652344 414.8125 2956.09375 414.582031 C 2959.523438 414.328125 2962.914062 414.214844 2966.179688 414.027344 C 2972.742188 413.699219 2978.867188 413.488281 2984.117188 413.390625 C 2994.632812 413.148438 3001.667969 413.390625 3001.667969 413.390625 C 3001.667969 413.390625 2994.738281 414.667969 2984.3125 415.976562 C 2979.097656 416.65625 2973.011719 417.351562 2966.480469 417.992188 C 2963.214844 418.292969 2959.84375 418.679688 2956.410156 418.929688 C 2952.980469 419.210938 2949.492188 419.503906 2946.003906 419.785156 C 2942.503906 420.015625 2939.027344 420.25 2935.574219 420.472656 C 2932.144531 420.722656 2928.753906 420.847656 2925.476562 421.035156 C 2918.925781 421.351562 2912.800781 421.566406 2907.539062 421.664062 C 2897.042969 421.90625 2890 421.671875 2890 421.671875"/><path fill="#9F9375" d="M 2878.980469 388.472656 C 2878.980469 388.472656 2886.636719 387.203125 2898.160156 385.886719 C 2903.914062 385.207031 2910.640625 384.519531 2917.859375 383.871094 C 2921.464844 383.570312 2925.195312 383.191406 2928.984375 382.929688 C 2932.773438 382.648438 2936.621094 382.367188 2940.480469 382.078125 C 2944.335938 381.84375 2948.195312 381.613281 2951.984375 381.390625 C 2955.78125 381.128906 2959.523438 381.011719 2963.136719 380.828125 C 2970.375 380.5 2977.132812 380.296875 2982.9375 380.199219 C 2994.535156 379.957031 3002.289062 380.199219 3002.289062 380.199219 C 3002.289062 380.199219 2994.632812 381.476562 2983.109375 382.785156 C 2977.34375 383.464844 2970.617188 384.160156 2963.410156 384.800781 C 2959.804688 385.101562 2956.074219 385.488281 2952.28125 385.738281 C 2948.484375 386.019531 2944.636719 386.300781 2940.789062 386.59375 C 2936.921875 386.824219 2933.074219 387.058594 2929.277344 387.28125 C 2925.488281 387.523438 2921.738281 387.648438 2918.132812 387.832031 C 2910.882812 388.160156 2904.128906 388.375 2898.332031 388.472656 C 2886.730469 388.703125 2878.980469 388.472656 2878.980469 388.472656"/><path fill="#9F9375" d="M 2890 452.996094 C 2890 453.003906 2897.664062 451.726562 2909.1875 450.417969 C 2914.953125 449.738281 2921.679688 449.042969 2928.890625 448.402344 C 2932.503906 448.101562 2936.226562 447.722656 2940.015625 447.453125 C 2943.8125 447.183594 2947.660156 446.890625 2951.507812 446.609375 C 2955.363281 446.378906 2959.222656 446.144531 2963.019531 445.914062 C 2966.808594 445.660156 2970.550781 445.542969 2974.175781 445.359375 C 2981.40625 445.03125 2988.167969 444.816406 2993.964844 444.722656 C 3005.566406 444.480469 3013.316406 444.730469 3013.316406 444.722656 C 3013.316406 444.722656 3005.660156 446 2994.140625 447.316406 C 2988.382812 447.996094 2981.648438 448.683594 2974.4375 449.332031 C 2970.824219 449.625 2967.101562 450.011719 2963.3125 450.273438 C 2959.523438 450.542969 2955.664062 450.835938 2951.808594 451.113281 C 2947.960938 451.347656 2944.105469 451.582031 2940.304688 451.8125 C 2936.515625 452.054688 2932.773438 452.179688 2929.152344 452.363281 C 2921.921875 452.683594 2915.15625 452.898438 2909.359375 452.996094 C 2897.761719 453.238281 2890 452.996094 2890 452.996094"/><path fill="#9F9375" d="M 2883.351562 378.832031 C 2883.351562 378.832031 2886.394531 377.816406 2890.996094 376.894531 C 2893.292969 376.410156 2895.988281 375.945312 2898.886719 375.539062 C 2900.328125 375.363281 2901.820312 375.113281 2903.351562 374.976562 C 2904.875 374.820312 2906.414062 374.667969 2907.964844 374.511719 C 2909.515625 374.40625 2911.078125 374.296875 2912.597656 374.199219 C 2914.128906 374.074219 2915.640625 374.074219 2917.105469 374.015625 C 2920.019531 373.929688 2922.746094 373.949219 2925.097656 374.046875 C 2929.789062 374.191406 2932.960938 374.683594 2932.960938 374.683594 C 2932.960938 374.683594 2929.925781 375.703125 2925.3125 376.632812 C 2923.015625 377.117188 2920.320312 377.582031 2917.433594 377.980469 C 2915.980469 378.164062 2914.488281 378.414062 2912.964844 378.550781 C 2911.445312 378.695312 2909.894531 378.851562 2908.34375 379.007812 C 2906.792969 379.113281 2905.242188 379.21875 2903.710938 379.316406 C 2902.179688 379.433594 2900.679688 379.433594 2899.214844 379.5 C 2896.296875 379.578125 2893.566406 379.566406 2891.210938 379.472656 C 2886.519531 379.324219 2883.351562 378.832031 2883.351562 378.832031"/><path fill="#9F9375" d="M 2944.433594 374.683594 C 2944.433594 374.683594 2948.066406 373.679688 2953.570312 372.746094 C 2956.324219 372.261719 2959.53125 371.796875 2962.980469 371.402344 C 2964.707031 371.21875 2966.492188 370.964844 2968.3125 370.828125 C 2970.125 370.675781 2971.964844 370.519531 2973.808594 370.363281 C 2975.660156 370.257812 2977.507812 370.152344 2979.332031 370.054688 C 2981.144531 369.929688 2982.945312 369.9375 2984.671875 369.871094 C 2988.148438 369.785156 2991.398438 369.800781 2994.1875 369.898438 C 2999.761719 370.046875 3003.511719 370.546875 3003.511719 370.546875 C 3003.511719 370.546875 2999.867188 371.566406 2994.371094 372.488281 C 2991.621094 372.972656 2988.402344 373.445312 2984.953125 373.84375 C 2983.226562 374.015625 2981.445312 374.277344 2979.632812 374.40625 C 2977.820312 374.558594 2975.96875 374.714844 2974.128906 374.871094 C 2972.277344 374.976562 2970.425781 375.074219 2968.613281 375.179688 C 2966.789062 375.296875 2964.996094 375.296875 2963.261719 375.355469 C 2959.792969 375.441406 2956.539062 375.421875 2953.746094 375.324219 C 2948.175781 375.179688 2944.433594 374.683594 2944.433594 374.683594"/><path fill="#9F9375" d="M 2885.347656 411.21875 C 2885.347656 411.21875 2890.65625 409.941406 2898.679688 408.621094 C 2902.683594 407.933594 2907.375 407.238281 2912.402344 406.589844 C 2914.914062 406.289062 2917.519531 405.902344 2920.15625 405.640625 C 2922.8125 405.359375 2925.496094 405.066406 2928.191406 404.777344 C 2930.886719 404.542969 2933.570312 404.300781 2936.226562 404.070312 C 2938.871094 403.816406 2941.496094 403.691406 2944.015625 403.507812 C 2949.085938 403.179688 2953.8125 402.957031 2957.875 402.859375 C 2966.003906 402.605469 2971.453125 402.839844 2971.453125 402.839844 C 2971.453125 402.839844 2966.152344 404.117188 2958.125 405.4375 C 2954.125 406.125 2949.433594 406.820312 2944.40625 407.46875 C 2941.882812 407.769531 2939.296875 408.15625 2936.652344 408.417969 C 2933.996094 408.699219 2931.3125 408.992188 2928.617188 409.273438 C 2925.933594 409.515625 2923.238281 409.746094 2920.582031 409.980469 C 2917.9375 410.222656 2915.3125 410.355469 2912.792969 410.542969 C 2907.734375 410.871094 2902.992188 411.09375 2898.933594 411.191406 C 2890.800781 411.441406 2885.347656 411.21875 2885.347656 411.21875"/><path fill="#9F9375" d="M 2885.347656 433.832031 C 2885.347656 433.832031 2890.65625 432.550781 2898.679688 431.234375 C 2902.683594 430.558594 2907.375 429.859375 2912.402344 429.199219 C 2914.914062 428.898438 2917.519531 428.523438 2920.15625 428.25 C 2922.8125 427.96875 2925.496094 427.679688 2928.191406 427.398438 C 2930.886719 427.15625 2933.570312 426.925781 2936.226562 426.691406 C 2938.871094 426.441406 2941.496094 426.3125 2944.015625 426.128906 C 2949.085938 425.789062 2953.8125 425.578125 2957.875 425.46875 C 2966.003906 425.226562 2971.453125 425.460938 2971.453125 425.460938 C 2971.453125 425.460938 2966.152344 426.738281 2958.125 428.058594 C 2954.125 428.746094 2949.433594 429.441406 2944.40625 430.09375 C 2941.882812 430.390625 2939.296875 430.78125 2936.652344 431.03125 C 2933.996094 431.324219 2931.3125 431.601562 2928.617188 431.894531 C 2925.933594 432.125 2923.238281 432.359375 2920.582031 432.589844 C 2917.9375 432.84375 2915.3125 432.96875 2912.792969 433.152344 C 2907.734375 433.484375 2902.992188 433.707031 2898.933594 433.800781 C 2890.800781 434.054688 2885.347656 433.832031 2885.347656 433.832031"/><path fill="#9F9375" d="M 2906.347656 394.101562 C 2906.347656 394.101562 2909.980469 393.082031 2915.484375 392.164062 C 2918.238281 391.679688 2921.445312 391.203125 2924.894531 390.804688 C 2926.628906 390.621094 2928.402344 390.371094 2930.226562 390.234375 C 2932.039062 390.078125 2933.878906 389.925781 2935.730469 389.769531 C 2937.570312 389.664062 2939.421875 389.566406 2941.234375 389.460938 C 2943.058594 389.332031 2944.851562 389.34375 2946.59375 389.277344 C 2950.0625 389.199219 2953.308594 389.207031 2956.101562 389.304688 C 2961.683594 389.449219 2965.425781 389.953125 2965.425781 389.953125 C 2965.425781 389.953125 2961.789062 390.972656 2956.285156 391.890625 C 2953.535156 392.375 2950.324219 392.851562 2946.875 393.246094 C 2945.140625 393.433594 2943.367188 393.683594 2941.546875 393.820312 C 2939.734375 393.964844 2937.890625 394.121094 2936.039062 394.273438 C 2934.199219 394.382812 2932.339844 394.488281 2930.527344 394.585938 C 2928.714844 394.703125 2926.910156 394.703125 2925.175781 394.769531 C 2921.699219 394.847656 2918.453125 394.835938 2915.671875 394.738281 C 2910.089844 394.59375 2906.347656 394.089844 2906.347656 394.101562"/><path fill="#9F9375" d="M 2941.914062 435.894531 C 2941.914062 435.894531 2945.558594 434.886719 2951.050781 433.957031 C 2953.804688 433.472656 2957.023438 433.007812 2960.460938 432.601562 C 2962.195312 432.425781 2963.96875 432.175781 2965.792969 432.039062 C 2967.605469 431.882812 2969.445312 431.730469 2971.296875 431.574219 C 2973.148438 431.46875 2974.988281 431.359375 2976.8125 431.265625 C 2978.625 431.136719 2980.425781 431.136719 2982.160156 431.082031 C 2985.628906 430.992188 2988.875 431.011719 2991.667969 431.109375 C 2997.25 431.253906 3000.992188 431.757812 3000.992188 431.75 C 3000.992188 431.75 2997.355469 432.765625 2991.851562 433.695312 C 2989.101562 434.179688 2985.882812 434.644531 2982.441406 435.050781 C 2980.71875 435.226562 2978.933594 435.488281 2977.113281 435.613281 C 2975.300781 435.769531 2973.457031 435.925781 2971.605469 436.078125 C 2969.757812 436.175781 2967.914062 436.28125 2966.09375 436.390625 C 2964.28125 436.503906 2962.476562 436.503906 2960.742188 436.5625 C 2957.273438 436.652344 2954.027344 436.632812 2951.238281 436.535156 C 2945.664062 436.390625 2941.914062 435.894531 2941.914062 435.894531"/></svg>